<?xml version="1.0" encoding="utf-8"?>
<!-- Generator: Adobe Illustrator 22.0.1, SVG Export Plug-In . SVG Version: 6.00 Build 0)  -->
<svg version="1.1" xmlns="http://www.w3.org/2000/svg" xmlns:xlink="http://www.w3.org/1999/xlink" x="0px" y="0px"
	 viewBox="0 0 800 800" enable-background="new 0 0 800 800" xml:space="preserve">
<g id="holistic-holdings">
</g>
<g id="art">
</g>
<g id="wealth-manager">
</g>
<g id="completely-custom">
</g>
<g id="good-business">
	<linearGradient id="SVGID_1_" gradientUnits="userSpaceOnUse" x1="261.9269" y1="228.8141" x2="261.9269" y2="75.0147">
		<stop  offset="0" style="stop-color:#26A6DD"/>
		<stop  offset="0.9252" style="stop-color:#81FCD0"/>
	</linearGradient>
	<path fill="url(#SVGID_1_)" d="M130.4,228.8v-48.5c63-70,155-107.8,263-105.2v153.7H130.4z"/>
	<linearGradient id="SVGID_2_" gradientUnits="userSpaceOnUse" x1="423.5761" y1="385.9715" x2="423.5761" y2="47.8349">
		<stop  offset="0.1772" style="stop-color:#26A6DD"/>
		<stop  offset="0.8632" style="stop-color:#81FCD0"/>
	</linearGradient>
	<path fill="url(#SVGID_2_)" d="M307,381.4c-3.9-0.7-152.7-133-152.7-133s-35.4-54.2,59-55.7c115.9-1.9,109.5-80.1,138.5-116.4
		c25.3-1.9,51.6-1.5,78.6,1.4c10.2-3.1,52.2-17.6,87.4-29.7l104.2,73.6l-0.3,36.4c31,25.7,57.3,56.4,77.8,90.3l-49,137.8
		C650.4,386,310.9,382,307,381.4z"/>
	<linearGradient id="SVGID_3_" gradientUnits="userSpaceOnUse" x1="223.6526" y1="466.5844" x2="223.6526" y2="146.2059">
		<stop  offset="0" style="stop-color:#26A6DD"/>
		<stop  offset="0.9252" style="stop-color:#81FCD0"/>
	</linearGradient>
	<path fill="url(#SVGID_3_)" d="M270,230.2c48.3,54.9,82,71.2,129.4,77.7L341,455.4L76.9,466.6l-28.6-31
		c-0.8-17.9-0.5-36.1,0.9-54.5c7.5-101.8,50.8-182.1,117-234.9C204.6,155.4,233.4,188.6,270,230.2z"/>
	<linearGradient id="SVGID_4_" gradientUnits="userSpaceOnUse" x1="636.9269" y1="291.8141" x2="636.9269" y2="117.8141">
		<stop  offset="0" style="stop-color:#26A6DD"/>
		<stop  offset="0.9252" style="stop-color:#81FCD0"/>
	</linearGradient>
	<path fill="url(#SVGID_4_)" d="M558.4,291.8v-174h63.5l-0.5,40c40.2,33.3,72,74.9,94,121.2v12.8H558.4z"/>
	<linearGradient id="SVGID_5_" gradientUnits="userSpaceOnUse" x1="649.6554" y1="452.6681" x2="649.6554" y2="217.9897">
		<stop  offset="0" style="stop-color:#26A6DD"/>
		<stop  offset="0.9252" style="stop-color:#81FCD0"/>
	</linearGradient>
	<path fill="url(#SVGID_5_)" d="M637.8,250.8c13.7-16.3,27.9-26.5,41.2-32.8c50.1,66.6,76.1,149.9,68.3,234.7L550.6,286.9
		C550.6,286.9,594.5,302.3,637.8,250.8z"/>
	<linearGradient id="SVGID_6_" gradientUnits="userSpaceOnUse" x1="532.4031" y1="736.6948" x2="532.4031" y2="277.4996">
		<stop  offset="0" style="stop-color:#26A6DD"/>
		<stop  offset="0.9252" style="stop-color:#81FCD0"/>
	</linearGradient>
	<path fill="url(#SVGID_6_)" d="M438.7,297.5c110.1-44.6,165.3-8.8,213,49.8c24.3,29.8,59,45.6,96.3,53.8
		c1.8,26.6,0.3,53.6-4.7,80.7c-24,129.9-98.6,215.3-202.2,254.9l-225-137.1C316.1,599.6,328.6,342.1,438.7,297.5z"/>
	<g>
		<path fill="#21263A" d="M641.1,467.3c2.3,6.3,5.5,10.8,9.3,14.3c3.8,3.5,4.8,3.5,5.4,4.8s1,1.5-4.2,1.4
			c-5.2-0.1-19.2-1.3-24.6-0.3c-5.4,1-7.4,0.4-7.4-0.7s3.1-1.3,6.4-5.8c3.3-4.5,6.3-7.9,6.8-9C635,467.1,641.1,467.3,641.1,467.3z"
			/>
		<path fill="#21263A" d="M648.6,486.4c1.1,6.3,8.1,14.6,15.1,19.1c2.7,1.7,0.3,1.6-2.5,1.8c-2.8,0.2-28.3,1.3-35.5,1.2
			c-7.3-0.1-12.4,1.1-12.2,0.3c0.2-0.8,2.1-2.5,5.5-5.7c3.3-3.2,9-12.2,10.2-16C630.4,483.3,648.6,486.4,648.6,486.4z"/>
		<path fill="#21263A" d="M624.3,501.9c-0.1,12.8-13.4,24-19,29.1c-2.8,2.6-0.7,4.2,7,3.4c7.5-0.8,25.3-4.1,34.8-4.3
			c9.5-0.1,20.7,3.9,20-0.7c-0.7-4.4-16.2-10.5-17.4-27.6C648.9,490.3,624.3,501.9,624.3,501.9z"/>
		<path fill="#21263A" d="M624.4,522.4c-0.1,11.6-15.2,21.7-21.4,26.3c-3.1,2.3-0.9,3.8,7.9,3.1c8.4-0.7,21.5-2.5,32.2-2.7
			c10.7-0.1,30.1,6.9,28.2,3.2c-0.9-1.7-21-13.8-22.3-29.2C648,512.7,624.4,522.4,624.4,522.4z"/>
		<path fill="#21263A" d="M649.5,470.3c-2.9-2.6-5.8-5.1-8.2-15.4c-2.4-10.3-3.2-18.4-4-18.2c-0.8,0.2-1.1,2.8-1.9,7.4
			c-0.8,4.6-3.1,13.5-5.7,19.3c-3,6.5-5.9,8.4-5.9,9.6c0,1.2,2.2,0.7,4.4,0.7c2.2,0,18,0.1,21.2-0.9
			C651.5,472.3,651.2,471.9,649.5,470.3z"/>
	</g>
	<linearGradient id="SVGID_7_" gradientUnits="userSpaceOnUse" x1="579.1077" y1="723.2456" x2="579.1077" y2="505.1157">
		<stop  offset="0" style="stop-color:#26A6DD"/>
		<stop  offset="0.9252" style="stop-color:#81FCD0"/>
	</linearGradient>
	<path fill="url(#SVGID_7_)" d="M444.9,654c123.2-5.2,127.1-22.9,168.4-85.2c34.9-52.7,79.2-65,125-63.6
		c-25.2,104.2-85,177.1-166.6,218C475.3,694.6,371.1,657.1,444.9,654z"/>
	<linearGradient id="SVGID_8_" gradientUnits="userSpaceOnUse" x1="169.5827" y1="591.9271" x2="169.5827" y2="316.2464">
		<stop  offset="0" style="stop-color:#26A6DD"/>
		<stop  offset="0.9252" style="stop-color:#81FCD0"/>
	</linearGradient>
	<path fill="url(#SVGID_8_)" d="M143.1,324.4c83.2,30.1,77.3,62.9,148.1,97.7L87.6,591.9c-31.1-61.3-44-134.3-38.3-210.8
		c1.4-18.7,4-36.6,7.7-53.8C79,315.2,107.2,311.4,143.1,324.4z"/>
	<path fill="#21263A" d="M125.9,530c-3.3-1.6-7.8-4.7-10.4-9.2c5.8-0.6,11.2-2.1,10.2-3.9c-0.5-0.9-10.6-4.6-12.9-12.2
		c3.5-0.2,6.2-0.3,7-0.4c2-0.2,3.7-0.1,1.8-1.3c-4-2.6-8.1-7-9.9-10.9c1.8,0,3.4,0,4.5,0c4.4,0,4-0.1,3.5-1.2
		c-0.5-1.1-1.3-1.1-4.5-4c-2.2-2-4.1-4.5-5.8-7.5c2.1-0.1,3.9-0.2,4.7-0.4c1.7-0.4,1.4-0.8,0.1-1.8c-2.3-1.8-4.5-3.5-6.4-10.7
		c-1.9-7.2-2.5-12.8-3.2-12.6c-0.6,0.2-0.8,2-1.4,5.2c-0.6,3.2-1.4,9.4-3.5,13.4c-2.3,4.5-5.4,5.8-5.4,6.7c0,0.8,1.7,0.5,3.4,0.5
		c0.4,0,1.2,0,2.3,0c-1.9,3.9-4.9,6.2-7.5,9.8c-2.7,3.7-4.2,3.2-4.2,4.1c0,0.9,2,0.4,6.5-0.5c0.4-0.1,0.8-0.1,1.3-0.2
		c-1.5,2.8-4.6,6.8-6.5,8.7c-2.4,2.3-3.7,3.6-3.9,4.1c-0.2,0.5,3.5-0.3,8.7-0.3c0.4,0,1,0,1.6,0c-2.2,5.5-9.7,10.2-13.1,12.5
		c-2,1.4-0.5,2.2,5.1,1.8c1.7-0.1,4,0,6.6,0.2c-2.2,4.3-7.1,9.3-12.1,12.1c-1.7,0.9-1.7,2,3,2.7c7.2,1.1,21.4,2.4,29.1,0.9
		C126,533.3,129.6,531.7,125.9,530z"/>
	<linearGradient id="SVGID_9_" gradientUnits="userSpaceOnUse" x1="338.3826" y1="760.0108" x2="381.3177" y2="516.5134">
		<stop  offset="0.1772" style="stop-color:#26A6DD"/>
		<stop  offset="0.8632" style="stop-color:#81FCD0"/>
	</linearGradient>
	<path fill="url(#SVGID_9_)" d="M135.9,505.3c96.3-59,276.6,50.5,351.3,105.5c66.2,48.8,110.3,56.4,162.9,56.6
		c-70.1,69.3-171.6,100.9-288,94c-145.4-8.7-240.9-85.7-285.3-192.7C90.6,544,109.7,521.3,135.9,505.3z"/>
	<g>
		<g>
			<path fill="#21263A" d="M227.9,282.6c0.9,0,1.7,0,2.3,0c4.8,0,4.4-0.2,3.9-1.6c-0.5-1.4-1.5-1.4-5-5.2c-2.5-2.8-4.8-6.2-6.7-10.5
				c2.4-0.1,4.4-0.2,5.3-0.4c1.9-0.4,1.6-0.7,0.2-1.7c-2.5-1.7-5-3.4-7.1-10.3s-2.8-12.3-3.5-12.1c-0.7,0.2-0.9,1.9-1.6,5
				c-0.7,3.1-1.6,9-3.8,12.9c-2.5,4.3-6,5.6-6,6.4c0,0.8,1.9,0.5,3.8,0.5c0.4,0,1.5,0,2.9,0c-2.1,5.1-6,9.7-8.4,13.6
				c-3,4.9-4.7,4.2-4.7,5.4c0,1.2,2.2,0.5,7.2-0.6c0.1,0,0.2,0,0.3-0.1c-2,7.3-12.8,13.5-17.5,16.5c-2.6,1.7-0.7,2.7,6.6,2.2
				c2-0.2,4.6-0.1,7.6,0.1c-2.9,5.5-8.6,11.7-14.4,15.2c-2.1,1.2-2,2.7,3.7,3.6c8.8,1.5,26.3,3.2,35.8,1.3c14.1-2.8,18.6-5,14-7.3
				c-3.9-2-9.1-5.9-12.3-11.4c8-0.6,16-2.5,14.6-4.8C244.4,298,229.6,293,227.9,282.6z"/>
			<path fill="#21263A" d="M317.8,243.3c-2.8-1.2-6.5-3.6-8.6-7c4.5-0.4,8.7-1.6,7.9-3c-0.4-0.7-8.2-3.5-9.9-9.4
				c2.7-0.1,4.8-0.2,5.4-0.3c1.5-0.1,2.8-0.1,1.4-1c-3.1-2-6.2-5.4-7.7-8.4c1.4,0,2.6,0,3.4,0c3.4,0,3.1-0.1,2.7-0.9
				c-0.4-0.8-1-0.8-3.5-3.1c-1.7-1.5-3.2-3.4-4.4-5.8c1.6-0.1,3-0.2,3.6-0.3c1.3-0.3,1.1-0.6,0.1-1.4c-1.7-1.4-3.5-2.7-4.9-8.2
				c-1.5-5.5-2-9.9-2.4-9.7c-0.5,0.1-0.6,1.5-1.1,4c-0.5,2.5-1.1,7.3-2.7,10.3c-1.7,3.5-4.2,4.5-4.2,5.1c0,0.6,1.3,0.4,2.6,0.4
				c0.3,0,0.9,0,1.8,0c-1.5,3-3.8,4.8-5.8,7.5c-2.1,2.9-3.2,2.5-3.2,3.2c0,0.7,1.5,0.3,5-0.4c0.3-0.1,0.6-0.1,1-0.1
				c-1.2,2.2-3.5,5.2-5,6.7c-1.8,1.8-2.9,2.7-3,3.2c-0.1,0.4,2.7-0.2,6.7-0.2c0.3,0,0.8,0,1.2,0c-1.7,4.3-7.5,7.9-10.1,9.7
				c-1.6,1.1-0.4,1.7,3.9,1.4c1-0.1,2.2-0.1,3.6,0c-1.8,3.1-5.9,6.5-10,8.6c-1.4,0.7-1.5,2.3,2.4,2.9c6,0.8,17.8,1.8,24.2,0.7
				C317.8,245.9,320.8,244.7,317.8,243.3z"/>
			<path fill="#21263A" d="M645.2,220.7c4.8-1,6.4-1.7,4.8-2.5c-1.3-0.7-3.1-2-4.2-3.9c2.7-0.2,5.5-0.9,5-1.7
				c-0.2-0.4-5.3-2.1-5.9-5.7c0.3,0,0.6,0,0.8,0c1.6,0,1.5-0.1,1.3-0.6c-0.2-0.5-0.5-0.5-1.7-1.8c-0.9-1-1.6-2.1-2.3-3.6
				c0.8,0,1.5-0.1,1.8-0.1c0.6-0.1,0.5-0.2,0.1-0.6c-0.9-0.6-1.7-1.2-2.4-3.5c-0.7-2.4-1-4.2-1.2-4.2c-0.2,0.1-0.3,0.6-0.5,1.7
				c-0.2,1.1-0.5,3.1-1.3,4.4c-0.9,1.5-2.1,1.9-2.1,2.2s0.6,0.2,1.3,0.2c0.1,0,0.5,0,1,0c-0.7,1.7-2.1,3.3-2.9,4.7
				c-1,1.7-1.6,1.4-1.6,1.8c0,0.4,0.8,0.2,2.5-0.2c0,0,0.1,0,0.1,0c-0.7,2.5-4.4,4.6-6,5.7c-0.9,0.6-0.2,0.9,2.3,0.7
				c0.7-0.1,1.6,0,2.6,0c-1,1.9-2.9,4-4.9,5.2c-0.7,0.4-0.7,0.9,1.3,1.2C636,220.8,642,221.4,645.2,220.7z"/>
			<path fill="#21263A" d="M728.8,458.3c-0.3-0.5-6.8-2.7-7.6-7.3c0.4,0,0.7,0,1,0c2.1,0,2-0.1,1.7-0.7c-0.2-0.6-0.7-0.6-2.2-2.3
				c-1.1-1.2-2.1-2.8-2.9-4.7c1.1,0,1.9-0.1,2.3-0.2c0.8-0.2,0.7-0.3,0.1-0.8c-1.1-0.8-2.2-1.5-3.1-4.6c-0.9-3.1-1.2-5.4-1.5-5.4
				c-0.3,0.1-0.4,0.8-0.7,2.2c-0.3,1.4-0.7,4-1.7,5.7c-1.1,1.9-2.7,2.5-2.7,2.8c0,0.4,0.8,0.2,1.7,0.2c0.2,0,0.7,0,1.3,0
				c-0.9,2.3-2.7,4.3-3.7,6c-1.3,2.2-2.1,1.9-2.1,2.4c0,0.5,1,0.2,3.2-0.3c0,0,0.1,0,0.1,0c-0.9,3.2-5.6,6-7.7,7.3
				c-1.2,0.7-0.3,1.2,2.9,1c0.9-0.1,2.1,0,3.4,0.1c-1.3,2.5-3.8,5.2-6.4,6.7c-0.9,0.5-0.9,1.2,1.6,1.6c3.9,0.7,11.7,1.4,15.9,0.6
				c6.3-1.3,8.2-2.2,6.2-3.2c-1.7-0.9-4-2.6-5.4-5.1C725.8,460.1,729.4,459.3,728.8,458.3z"/>
			<path fill="#21263A" d="M111.2,334.6c-1.9-0.9-4.4-2.7-5.9-5.2c3.3-0.3,6.3-1.2,5.8-2.2c-0.3-0.5-6-2.6-7.3-6.9
				c2-0.1,3.5-0.2,3.9-0.2c1.1-0.1,2.1,0,1-0.7c-2.3-1.5-4.6-3.9-5.6-6.2c1,0,1.9,0,2.5,0c2.5,0,2.3-0.1,2-0.7
				c-0.3-0.6-0.8-0.6-2.5-2.3c-1.2-1.1-2.3-2.5-3.3-4.2c1.2-0.1,2.2-0.1,2.7-0.3c1-0.3,0.8-0.4,0.1-1c-1.3-1-2.5-2-3.6-6.1
				c-1.1-4.1-1.4-7.3-1.8-7.2c-0.4,0.1-0.5,1.1-0.8,2.9c-0.3,1.8-0.8,5.3-2,7.6c-1.3,2.6-3.1,3.3-3.1,3.8c0,0.5,1,0.3,1.9,0.3
				c0.2,0,0.7,0,1.3,0c-1.1,2.2-2.8,3.5-4.2,5.5c-1.5,2.1-2.4,1.8-2.4,2.3c0,0.5,1.1,0.2,3.7-0.3c0.2,0,0.5-0.1,0.7-0.1
				c-0.9,1.6-2.6,3.8-3.7,4.9c-1.3,1.3-2.1,2-2.2,2.3c-0.1,0.3,2-0.2,4.9-0.2c0.2,0,0.6,0,0.9,0c-1.2,3.1-5.5,5.8-7.4,7.1
				c-1.1,0.8-0.3,1.3,2.9,1c1-0.1,2.3,0,3.7,0.1c-1.2,2.4-4,5.3-6.9,6.8c-1,0.5-0.9,1.1,1.7,1.5c4.1,0.6,12.1,1.3,16.5,0.5
				C111.3,336.5,113.3,335.6,111.2,334.6z"/>
			<path fill="#21263A" d="M393,109.5c-1-0.5-2.4-1.5-3.2-2.8c1.8-0.2,3.5-0.6,3.1-1.2c-0.2-0.3-3.3-1.4-4-3.8
				c1.1,0,1.9-0.1,2.1-0.1c0.6,0,1.1,0,0.5-0.4c-1.2-0.8-2.5-2.1-3.1-3.4c0.6,0,1,0,1.4,0c1.3,0,1.2,0,1.1-0.4
				c-0.2-0.3-0.4-0.3-1.4-1.2c-0.7-0.6-1.3-1.4-1.8-2.3c0.7,0,1.2-0.1,1.4-0.1c0.5-0.1,0.4-0.2,0-0.6c-0.7-0.6-1.4-1.1-2-3.3
				c-0.6-2.2-0.8-4-1-3.9c-0.2,0-0.3,0.6-0.4,1.6c-0.2,1-0.4,2.9-1.1,4.1c-0.7,1.4-1.7,1.8-1.7,2.1c0,0.3,0.5,0.2,1.1,0.2
				c0.1,0,0.4,0,0.7,0c-0.6,1.2-1.5,1.9-2.3,3c-0.8,1.2-1.3,1-1.3,1.3c0,0.3,0.6,0.1,2-0.1c0.1,0,0.2,0,0.4-0.1
				c-0.5,0.9-1.4,2.1-2,2.7c-0.7,0.7-1.1,1.1-1.2,1.3c-0.1,0.2,1.1-0.1,2.7-0.1c0.1,0,0.3,0,0.5,0c-0.7,1.7-3,3.1-4.1,3.9
				c-0.6,0.4-0.2,0.7,1.6,0.5c0.5,0,1.2,0,2,0c-0.7,1.3-2.2,2.9-3.7,3.7c-0.5,0.3-0.5,0.6,0.9,0.8c2.2,0.3,6.6,0.7,9,0.3
				C393.1,110.6,394.2,110.1,393,109.5z"/>
			<path fill="#21263A" d="M293.7,134.3c4.9-1,6.5-1.7,4.9-2.6c-1.4-0.7-3.2-2.1-4.3-4c2.8-0.2,5.6-0.9,5.1-1.7
				c-0.2-0.4-5.4-2.1-6-5.8c0.3,0,0.6,0,0.8,0c1.7,0,1.6-0.1,1.4-0.6c-0.2-0.5-0.5-0.5-1.7-1.8c-0.9-1-1.7-2.2-2.3-3.7
				c0.8,0,1.5-0.1,1.8-0.2c0.7-0.2,0.6-0.3,0.1-0.6c-0.9-0.6-1.7-1.2-2.5-3.6c-0.7-2.4-1-4.3-1.2-4.2c-0.2,0.1-0.3,0.7-0.6,1.7
				c-0.2,1.1-0.6,3.2-1.3,4.5c-0.9,1.5-2.1,2-2.1,2.2c0,0.3,0.7,0.2,1.3,0.2c0.2,0,0.5,0,1,0c-0.7,1.8-2.1,3.4-2.9,4.8
				c-1,1.7-1.6,1.5-1.6,1.9c0,0.4,0.8,0.2,2.5-0.2c0,0,0.1,0,0.1,0c-0.7,2.5-4.4,4.7-6.1,5.8c-0.9,0.6-0.2,1,2.3,0.8
				c0.7-0.1,1.6,0,2.6,0c-1,1.9-3,4.1-5,5.3c-0.7,0.4-0.7,0.9,1.3,1.3C284.3,134.3,290.4,134.9,293.7,134.3z"/>
			<path fill="#21263A" d="M168.4,207.8c0.3,0,0.6,0,0.9,0c1.8,0,1.7-0.1,1.5-0.6c-0.2-0.5-0.6-0.5-1.9-2c-1-1.1-1.8-2.4-2.6-4
				c0.9,0,1.7-0.1,2-0.2c0.7-0.2,0.6-0.3,0.1-0.7c-1-0.7-1.9-1.3-2.7-3.9c-0.8-2.6-1.1-4.7-1.3-4.7c-0.3,0.1-0.4,0.7-0.6,1.9
				c-0.3,1.2-0.6,3.5-1.5,4.9c-1,1.7-2.3,2.1-2.3,2.5c0,0.3,0.7,0.2,1.4,0.2c0.2,0,0.6,0,1.1,0c-0.8,2-2.3,3.7-3.2,5.2
				c-1.1,1.9-1.8,1.6-1.8,2.1c0,0.5,0.8,0.2,2.8-0.2c0,0,0.1,0,0.1,0c-0.8,2.8-4.9,5.2-6.7,6.3c-1,0.6-0.3,1,2.5,0.8
				c0.8-0.1,1.8,0,2.9,0.1c-1.1,2.1-3.3,4.5-5.5,5.8c-0.8,0.5-0.8,1,1.4,1.4c3.4,0.6,10.1,1.2,13.7,0.5c5.4-1.1,7.1-1.9,5.4-2.8
				c-1.5-0.8-3.5-2.3-4.7-4.4c3.1-0.2,6.1-1,5.6-1.9C174.7,213.7,169.1,211.8,168.4,207.8z"/>
			<path fill="#21263A" d="M661.5,602.9c0.3,0,0.6,0,0.8,0c1.7,0,1.5-0.1,1.4-0.6c-0.2-0.5-0.5-0.5-1.7-1.8c-0.9-1-1.7-2.2-2.3-3.7
				c0.8,0,1.5-0.1,1.8-0.1c0.7-0.1,0.6-0.3,0.1-0.6c-0.9-0.6-1.7-1.2-2.5-3.6c-0.7-2.4-1-4.3-1.2-4.2s-0.3,0.7-0.6,1.7
				c-0.2,1.1-0.6,3.1-1.3,4.5c-0.9,1.5-2.1,1.9-2.1,2.2c0,0.3,0.7,0.2,1.3,0.2c0.2,0,0.5,0,1,0c-0.7,1.8-2.1,3.4-2.9,4.7
				c-1,1.7-1.6,1.5-1.6,1.9c0,0.4,0.8,0.2,2.5-0.2c0,0,0.1,0,0.1,0c-0.7,2.5-4.4,4.7-6.1,5.8c-0.9,0.6-0.2,0.9,2.3,0.8
				c0.7-0.1,1.6,0,2.6,0c-1,1.9-3,4.1-5,5.3c-0.7,0.4-0.7,0.9,1.3,1.3c3.1,0.5,9.2,1.1,12.5,0.5c4.9-1,6.5-1.7,4.9-2.5
				c-1.4-0.7-3.2-2.1-4.3-4c2.8-0.2,5.6-0.9,5.1-1.7C667.2,608.2,662.1,606.5,661.5,602.9z"/>
			<path fill="#21263A" d="M131.9,578.4c0.3,0,0.6,0,0.8,0c1.7,0,1.5-0.1,1.4-0.6c-0.2-0.5-0.5-0.5-1.7-1.8c-0.9-1-1.7-2.2-2.3-3.7
				c0.8,0,1.5-0.1,1.8-0.1c0.7-0.1,0.6-0.3,0.1-0.6c-0.9-0.6-1.7-1.2-2.5-3.6c-0.7-2.4-1-4.3-1.2-4.2c-0.2,0.1-0.3,0.7-0.6,1.7
				c-0.2,1.1-0.6,3.1-1.3,4.5c-0.9,1.5-2.1,1.9-2.1,2.2c0,0.3,0.7,0.2,1.3,0.2c0.2,0,0.5,0,1,0c-0.7,1.8-2.1,3.4-2.9,4.7
				c-1,1.7-1.6,1.5-1.6,1.9c0,0.4,0.8,0.2,2.5-0.2c0,0,0.1,0,0.1,0c-0.7,2.5-4.4,4.7-6.1,5.8c-0.9,0.6-0.2,0.9,2.3,0.8
				c0.7-0.1,1.6,0,2.6,0c-1,1.9-3,4.1-5,5.3c-0.7,0.4-0.7,0.9,1.3,1.3c3.1,0.5,9.2,1.1,12.5,0.5c4.9-1,6.5-1.7,4.9-2.5
				c-1.4-0.7-3.2-2.1-4.3-4c2.8-0.2,5.6-0.9,5.1-1.7C137.6,583.7,132.5,582,131.9,578.4z"/>
			<path fill="#21263A" d="M541.1,687.4c0.6,0,1.1,0,1.5,0c3.1,0,2.8-0.1,2.5-1c-0.3-0.9-0.9-0.9-3.2-3.3c-1.6-1.8-3.1-4-4.2-6.7
				c1.5-0.1,2.8-0.1,3.4-0.3c1.2-0.3,1-0.5,0.1-1.1c-1.6-1.1-3.2-2.2-4.5-6.6c-1.3-4.4-1.8-7.8-2.2-7.7c-0.4,0.1-0.6,1.2-1,3.2
				c-0.4,2-1,5.8-2.4,8.2c-1.6,2.8-3.8,3.6-3.8,4.1c0,0.5,1.2,0.3,2.4,0.3c0.3,0,1,0,1.9,0c-1.4,3.2-3.9,6.2-5.4,8.7
				c-1.9,3.1-3,2.7-3,3.4c0,0.8,1.4,0.3,4.6-0.4c0.1,0,0.1,0,0.2,0c-1.3,4.6-8.1,8.6-11.2,10.6c-1.7,1.1-0.4,1.7,4.2,1.4
				c1.3-0.1,3,0,4.8,0.1c-1.8,3.5-5.5,7.5-9.2,9.7c-1.3,0.8-1.3,1.7,2.3,2.3c5.6,1,16.8,2,22.9,0.8c9-1.8,11.8-3.2,9-4.7
				c-2.5-1.3-5.8-3.8-7.8-7.3c5.1-0.4,10.2-1.6,9.3-3.1C551.6,697.2,542.2,694.1,541.1,687.4z"/>
			<path fill="#21263A" d="M669.6,379.7c-2.5-1.2-5.8-3.5-7.7-6.9c4.3-0.4,8.4-1.6,7.6-2.9c-0.4-0.7-8-3.4-9.7-9.1
				c2.6-0.1,4.7-0.2,5.2-0.3c1.5-0.1,2.7-0.1,1.3-1c-3-1.9-6.1-5.2-7.4-8.2c1.4,0,2.5,0,3.4,0c3.3,0,3-0.1,2.6-0.9
				c-0.4-0.8-1-0.8-3.4-3c-1.6-1.5-3.1-3.3-4.3-5.6c1.6-0.1,2.9-0.2,3.5-0.3c1.3-0.3,1.1-0.6,0.1-1.3c-1.7-1.4-3.4-2.6-4.8-8
				c-1.4-5.4-1.9-9.6-2.4-9.5c-0.5,0.1-0.6,1.5-1.1,3.9c-0.5,2.4-1.1,7-2.6,10.1c-1.7,3.4-4.1,4.4-4.1,5c0,0.6,1.3,0.4,2.5,0.4
				c0.3,0,0.9,0,1.7,0c-1.4,2.9-3.7,4.6-5.6,7.3c-2,2.8-3.1,2.4-3.2,3.1c0,0.7,1.5,0.3,4.9-0.4c0.3-0.1,0.6-0.1,1-0.1
				c-1.1,2.1-3.4,5.1-4.9,6.5c-1.8,1.7-2.8,2.7-2.9,3.1c-0.1,0.4,2.6-0.2,6.5-0.2c0.3,0,0.7,0,1.2,0c-1.6,4.1-7.3,7.6-9.8,9.4
				c-1.5,1-0.4,1.7,3.8,1.3c1.3-0.1,3,0,4.9,0.1c-1.6,3.2-5.3,7-9.1,9c-1.3,0.7-1.2,1.5,2.2,2c5.4,0.8,16,1.8,21.8,0.7
				C669.7,382.2,672.4,381,669.6,379.7z"/>
		</g>
		<g>
			<path fill="#21263A" d="M692.5,285c-1,3.2-2.4,5.6-4.1,7.4c-1.6,1.8-2.1,1.8-2.3,2.5c-0.3,0.7-0.4,0.8,1.8,0.8
				c2.3,0,8.7,0,11.1,0.6s3.4,0.9,3.4,0.3c0-0.6-0.8-0.2-2.2-2.5c-1.4-2.3-3.9-5.1-4.6-8.3C695.1,282.9,692.5,285,692.5,285z"/>
			<path fill="#21263A" d="M698.7,295.1c0,3.9,6,7.3,8.4,8.9c1.2,0.8,0.3,1.3-3.1,1c-3.3-0.3-10.3,0.9-14.5,0.8
				c-4.2-0.1-9.4-1.1-8.6-2.4c0.3-0.6,7.6-3,8.2-8.2C689.4,291.8,698.7,295.1,698.7,295.1z"/>
			<path fill="#21263A" d="M699.6,301.5c-0.6,2.8,3.5,8.3,7.7,10.8c1,0.6,1,1.3-1.7,1.7c-4.2,0.7-12.4,1.5-16.9,0.6
				c-6.7-1.3-8.8-2.3-6.6-3.5c2.7-1.4,6.8-4.7,7.2-9.6C689.6,296.2,699.6,301.5,699.6,301.5z"/>
			<path fill="#21263A" d="M689,286.4c1.2-0.8,2.3-1.6,3.3-4.9c1-3.3,1.3-5.8,1.7-5.7c0.3,0.1,0.4,0.9,0.8,2.3s0.8,4.3,1.8,6.1
				c1.2,2,2.8,2.6,2.8,3c0,0.4-0.9,0.2-1.8,0.2s-7.2,0-8.5-0.3C688.2,287,688.4,286.9,689,286.4z"/>
		</g>
	</g>
	<path fill="#3032BB" d="M428,78.2C429.6,78.7,568.9,30,568.9,30l8.2,61c0,0-146.4,43.3-146.4,41.7S428,78.2,428,78.2z"/>
	<polygon fill="#3C3FCA" points="375.3,132.7 515.3,86.5 526.4,163.1 374.6,181.8 	"/>
	<polygon fill="#474CD9" points="324.9,194.1 460.9,143.7 476.7,227.8 324.2,239.1 	"/>
	<polygon fill="#5359E8" points="273.7,246.7 405.2,203.7 419.5,281.6 271.8,297.5 	"/>
	<path fill="#5E66F7" d="M217.6,301.6l131.8-38.6c0,0,39.6,80.4,37.4,80.4c-2.2,0-171.3,3.6-171.3,3.6L217.6,301.6z"/>
	<polygon fill="#080627" points="622.5,39.1 568.9,30 566.7,82.9 515.3,86.5 513.8,144.4 460.9,143.7 460.2,203.8 405.2,203.8 
		401.6,262.8 349.4,262.8 344.4,320.9 291.3,318.8 284.1,396.4 619.2,424.6 	"/>
	<polygon fill="#6D78FE" points="115.6,372.8 111.7,419.2 288.1,380.6 291.3,318.8 	"/>
	<path fill="#3032BB" d="M288.2,380.6c0,0,30.8,4.2,29,4c-1.8-0.1-150.7,65.2-150.7,65.2l-22.6-13.7l-32.1-17L288.2,380.6z"/>
	<path fill="#080627" d="M317.1,384.6l41.1,268.8l-112.3,83.1c-30.1-12-56.8-27.8-80.1-46.8l-21.8-253.6L317.1,384.6z"/>
	<path fill="#3032BB" d="M447.9,759.1c-27.5,3.2-56.2,4-85.8,2.2c-59.7-3.6-110.9-18.6-153.7-42.5l241.8-3.8L447.9,759.1z"/>
	<polygon fill="#3C3FCA" points="478.4,723.1 207.4,718.7 207.4,658.4 231.3,658.1 477.4,648.5 	"/>
	<path fill="#474CD9" d="M502.4,661.2c-1.9,0.6-270.6-3.1-270.6-3.1l2.1-66.8l27.7-0.1l242.2-4.8L502.4,661.2z"/>
	<polygon fill="#5359E8" points="534.2,596.2 261.6,591.2 263.9,525.4 287.8,525.9 535.8,524.8 	"/>
	<polygon fill="#5E66F7" points="561.6,532.7 287.8,525.9 290.3,458.2 317.2,458.7 563.6,459 	"/>
	<polygon fill="#6D78FE" points="591.1,465.6 316.4,458.7 316.4,384.6 591.2,422.2 	"/>
	<g>
		<g>
			<defs>
				<polygon id="SVGID_111_" points="164.5,687.8 143.9,436.2 344.4,320.9 349.4,262.8 401.6,262.8 405.2,203.8 460.2,203.8 
					460.9,143.7 513.8,144.4 515.3,86.5 566.7,82.9 568.9,30 622.5,39.1 591.7,422.2 317.2,384.6 317.2,458.7 290.3,458.2 
					287.8,525.9 204,748.7 				"/>
			</defs>
			<clipPath id="SVGID_10_">
				<use xlink:href="#SVGID_111_"  overflow="visible"/>
			</clipPath>
			<polygon clip-path="url(#SVGID_10_)" fill="#81FCD0" points="136.3,682.2 128.2,678.7 187.9,541.7 210.9,550.2 258.1,472.1 
				313.4,504.1 417.7,301.9 452.3,345.2 503,257.4 528.4,266.8 599.8,127 607.6,130.9 532.6,277.7 506.8,268.1 453.5,360.7 
				419.3,317.9 317,516.3 261.1,483.9 214.6,561 192.7,552.8 			"/>
		</g>
		<g>
			<g>
				<path fill="#81FCD0" d="M567.4,191.8c-15.3-6.2-28.8-16.3-30.8-35.2c-2-18.9,2.4-31.7,2.4-31.7s35.3,6.6,39.5,45
					C580.1,184.5,567.4,191.8,567.4,191.8z"/>
				<g>
					<path fill="#1ACCCC" d="M539,124.9c0,0-4.8,16.1-2.8,35c2,18.9,12.9,29.2,31.2,31.9C567.4,191.8,561.8,153.6,539,124.9z"/>
				</g>
			</g>
			<g>
				<path fill="#1ACCCC" d="M475.4,304.8c7-6.2,12.3-14,9.8-24.5c-2.5-10.4-7.2-16.4-7.2-16.4s-17.5,10.1-12.6,31.3
					C467.3,303.4,475.4,304.8,475.4,304.8z"/>
				<g>
					<path fill="#81FCD0" d="M478,263.9c0,0,5.5,7.7,8,18.1c2.5,10.4-1.4,17.9-10.6,22.8C475.4,304.8,471.2,283.5,478,263.9z"/>
				</g>
			</g>
			<g>
				<path fill="#1ACCCC" d="M223.7,531.4c5.4-8.4,8.8-18.6,4.3-30.4c-4.5-11.8-10.3-18.1-10.3-18.1s-14.7,14.9-5.5,38.9
					C215.6,531,223.7,531.4,223.7,531.4z"/>
				<g>
					<path fill="#81FCD0" d="M217.7,482.9c0,0,6.9,8.1,11.4,19.9c4.5,11.8,2.4,21.3-5.4,28.6C223.7,531.4,215.2,507,217.7,482.9z"/>
				</g>
			</g>
			<g>
				<path fill="#81FCD0" d="M473.5,326.6c6,3.1,12.6,4.6,18.8,0.1c6.2-4.5,8.8-9.3,8.8-9.3s-13.7-8.8-24.1-0.1
					C473,320.5,473.5,326.6,473.5,326.6z"/>
				<g>
					<path fill="#1ACCCC" d="M501.1,317.4c0,0-2.7,4.8-8.8,9.3c-6.2,4.5-12.8,3-18.8-0.1C473.5,326.6,486.4,318,501.1,317.4z"/>
				</g>
			</g>
			<g>
				<path fill="#81FCD0" d="M170.6,602.3c6.4,1.7,13,1.7,17.9-3.9s6.4-10.8,6.4-10.8s-14.9-5.4-23,5
					C168.9,596.6,170.6,602.3,170.6,602.3z"/>
				<g>
					<path fill="#1ACCCC" d="M195,587.6c0,0-1.5,5.2-6.4,10.8s-11.6,5.6-17.9,3.9C170.6,602.3,181.1,591.3,195,587.6z"/>
				</g>
			</g>
			<g>
				<path fill="#1ACCCC" d="M596.5,133.7c25.9,2.1,51.2-2.8,64.2-29.5c13-26.7,7.8-53.4,7.8-53.4s-68,4.6-76.8,42
					C586.4,115.2,596.5,133.7,596.5,133.7z"/>
				<g>
					<path fill="#81FCD0" d="M668.5,50.8c0,0,5.1,26.6-7.8,53.4c-13,26.7-38.3,31.6-64.2,29.5C596.5,133.7,620.6,74.4,668.5,50.8z"
						/>
				</g>
			</g>
			<g>
				<path fill="#81FCD0" d="M551.1,241.2c7.8,6.1,17,10,27.1,5.2c10.1-4.9,15.3-11.1,15.3-11.1s-17.4-16.3-34.8-6.7
					C552.2,232.3,551.1,241.2,551.1,241.2z"/>
				<g>
					<path fill="#1ACCCC" d="M593.5,235.3c0,0-5.1,6.3-15.3,11.1c-10.1,4.9-19.3,0.9-27.1-5.2C551.1,241.2,572.1,232.3,593.5,235.3z
						"/>
				</g>
			</g>
		</g>
	</g>
</g>
<g id="climate-crusader">
</g>
<g id="for-humanity">
</g>
<g id="Swatches">
</g>
</svg>
