<?xml version="1.0" encoding="UTF-8" standalone="no"?>
<svg width="32px" height="32px" viewBox="0 0 32 32" version="1.1" xmlns="http://www.w3.org/2000/svg" xmlns:xlink="http://www.w3.org/1999/xlink">
    <!-- Generator: Sketch 48.2 (47327) - http://www.bohemiancoding.com/sketch -->
    <title>investor-ico-blue</title>
    <desc>Created with Sketch.</desc>
    <defs></defs>
    <g id="Symbols" stroke="none" stroke-width="1" fill="none" fill-rule="evenodd">
        <g id="investor-ico-blue">
            <rect id="Rectangle" x="0" y="0" width="32" height="32"></rect>
            <g id="investor-ico" transform="translate(1.000000, 9.000000)">
                <path d="M29.9290915,6.5999999 C22.2626496,-2.18498466 7.69250116,-2.20278004 0,6.56342052" id="Stroke-1" stroke="#0000FF" stroke-width="1.5" stroke-linecap="square" stroke-linejoin="round"></path>
                <path d="M1,11.0759316 C8.17538785,1.68439859 21.8488036,1.61497971 29,11.0264969 C21.8246121,20.4169781 8.15224823,20.4874488 1,11.0759316 Z" id="Stroke-3" stroke="#0000FF" stroke-width="1.5"></path>
                <path d="M15,15 C12.7906027,15 11,13.2093973 11,11 C11,8.79060266 12.7906027,7 15,7 C17.2093973,7 19,8.79060266 19,11 C19,13.2093973 17.2093973,15 15,15 Z" id="Fill-5" fill="#0000FF"></path>
                <path d="M17,11 C16.4476507,11 16,10.5523493 16,10 C16,9.44765066 16.4476507,9 17,9 C17.5523493,9 18,9.44765066 18,10 C18,10.5523493 17.5523493,11 17,11 Z" id="Fill-5" fill="#FFFFFF"></path>
            </g>
        </g>
    </g>
</svg>