<?xml version="1.0" encoding="UTF-8"?>
<svg width="79px" height="26px" viewBox="0 0 79 26" version="1.1" xmlns="http://www.w3.org/2000/svg" xmlns:xlink="http://www.w3.org/1999/xlink">
    <!-- Generator: Sketch 49 (51002) - http://www.bohemiancoding.com/sketch -->
    <title>Inc</title>
    <desc>Created with Sketch.</desc>
    <defs></defs>
    <g id="Main" stroke="none" stroke-width="1" fill="none" fill-rule="evenodd">
        <g id="About-us" transform="translate(-770.000000, -646.000000)" fill="#231F20">
            <g id="Press" transform="translate(376.000000, 610.000000)">
                <g id="Inc" transform="translate(394.000000, 36.000000)">
                    <polygon id="Fill-1" points="0 0 0 5.86376171 3.37587022 5.86376171 3.37587022 19.5532153 0 19.5532153 0 25 18 25 18 19.5491598 14.6263232 19.5491598 14.6263232 5.86376171 18 5.86376171 18 0"></polygon>
                    <g id="Group-9" transform="translate(20.000000, 5.000000)">
                        <path d="M0,0 L0,5.76448677 L2.49343605,5.76448677 L2.49343605,14.4497806 L0,14.4497806 L0,20.2069636 L13.8155423,20.2069636 L13.8155423,14.4497806 L11.1817785,14.4497806 L11.1817785,9.45909879 C11.1817785,7.34783627 12.710602,5.79029325 14.7420793,5.79029325 C16.3422828,5.79029325 17.5875507,6.60636244 17.5875507,8.42050955 L17.5875507,14.4497806 L15.0249799,14.4497806 L15.0249799,20.2069636 L28.5169265,20.2069636 L28.5169265,14.5379122 C28.5041099,14.5082104 28.4926031,14.4774373 28.4778219,14.4478329 L26.2732738,14.4478329 L26.2732738,6.82897988 C26.2732738,1.97385516 22.8565751,0.194473766 18.6560058,0.194473766 C15.666371,0.194473766 13.3874493,1.04686679 11.3946089,3.42028422 C11.2520359,3.60492231 11.0735391,3.82637116 10.8961649,3.97478278 L10.8961649,0 L0,0 Z" id="Fill-2"></path>
                        <path d="M40.8177509,0.00993306164 C34.660078,0.00993306164 28.6123286,3.15608426 28.6060606,10.3015587 C28.6080252,11.8216093 28.8825997,13.1612093 29.3725305,14.3274676 L29.4116351,14.3274676 L29.4116351,14.4175468 C31.2581605,18.6697736 36.0032012,20.5922106 40.8177509,20.5922106 C44.7411261,20.5922106 50.1913603,19.6095192 51.4160469,13.3260786 L51.4762942,12.656863 L44.2956325,12.6523833 L44.0516494,12.6514095 C44.0516494,14.7758187 42.5702567,15.7803239 40.888476,15.7803239 C37.6840463,15.7803239 37.4348243,12.9975085 37.4348243,10.3311632 L37.4348243,10.2773104 L37.4348243,10.2730255 C37.4348243,7.60658279 37.6840463,4.82610459 40.888476,4.82610459 C43.4085743,4.82610459 43.8352641,7.10282075 43.9261029,9.25868466 L51.3800294,8.40570734 C50.5841843,0.49723738 43.1088344,0 41.2379856,0 C40.9697726,0 40.8177509,0.00993306164 40.8177509,0.00993306164" id="Fill-4"></path>
                        <path d="M51.8484848,16.9697646 C51.8484848,18.7788478 53.2570943,20.2427084 54.9948189,20.2427084 C56.7306725,20.2427084 58.1390948,18.7788478 58.1390948,16.9697646 C58.1390948,15.16185 56.7306725,13.6956522 54.9948189,13.6956522 C53.2570943,13.6956522 51.8484848,15.16185 51.8484848,16.9697646" id="Fill-7"></path>
                    </g>
                </g>
            </g>
        </g>
    </g>
</svg>