<?xml version="1.0" encoding="UTF-8"?>
<svg width="468px" height="151px" viewBox="0 0 468 151" version="1.1" xmlns="http://www.w3.org/2000/svg" xmlns:xlink="http://www.w3.org/1999/xlink">
    <!-- Generator: Sketch 48.2 (47327) - http://www.bohemiancoding.com/sketch -->
    <title>58ab663344090871159a0d2d_Logo</title>
    <desc>Created with Sketch.</desc>
    <defs></defs>
    <g id="Touchpoint-map" stroke="none" stroke-width="1" fill="none" fill-rule="evenodd" transform="translate(-2317.000000, -1425.000000)">
        <g id="58ab663344090871159a0d2d_Logo" transform="translate(2316.000000, 1425.000000)" fill="#000000" fill-rule="nonzero">
            <g id="Group">
                <g id="KeyArt5_Ethic_Growth" transform="translate(0.000000, 46.000000)">
                    <g id="Mask">
                        <path d="M98.94,73.54 C97.6817096,77.8893633 95.7080596,81.9988811 93.1,85.7 C90.4248373,89.5254307 87.1374443,92.8837746 83.37,95.64 C79.2840133,98.5843528 74.7534808,100.856371 69.95,102.37 C64.4849083,104.095377 58.7806403,104.942579 53.05,104.88 C46.2655936,104.911491 39.531128,103.71907 33.17,101.36 C26.9878453,99.0846741 21.3380894,95.5654888 16.57,91.02 C11.6736069,86.3007736 7.80300312,80.6225264 5.2,74.34 C2.30015003,67.2690158 0.871096518,59.6814221 1,52.04 C0.896492192,44.6696225 2.29136627,37.3550389 5.1,30.54 C7.64343475,24.4071234 11.3828355,18.8422152 16.1,14.17 C20.665106,9.68924314 26.0587327,6.13991075 31.98,3.72 C37.8900287,1.26063437 44.2286795,-0.00369704644 50.63,-1.71862521e-13 C66.3366667,-1.71862521e-13 78.5633333,4.55333333 87.31,13.66 C96.0566667,22.7666667 100.426667,35.29 100.42,51.23 C100.42,53.11 100.35,54.88 100.22,56.55 C100.09,58.22 100.02,59.19 100.02,59.46 L27.89,59.46 C28.0027057,62.5783254 28.8089119,65.6323438 30.25,68.4 C33.0793468,73.8928948 37.8691302,78.1223236 43.67,80.25 C46.7485952,81.4034615 50.0124947,81.9830325 53.3,81.96 C59.72,81.96 64.74,80.5533333 68.36,77.74 C71.9650988,74.9441461 74.7013911,71.1813106 76.25,66.89 L98.94,73.54 Z M73.53,41.2 C73.3829497,38.7587504 72.8636194,36.3543188 71.99,34.07 C71.0954316,31.7184616 69.6958676,29.591807 67.89,27.84 C65.8681988,25.9230338 63.4899529,24.4213414 60.89,23.42 C57.7172856,22.2167347 54.3424196,21.6361491 50.95,21.71 C44.8465115,21.5746533 38.9432835,23.8905628 34.56,28.14 C32.7113105,29.9208702 31.215152,32.0344909 30.15,34.37 C29.1567614,36.5209464 28.5669795,38.8360096 28.41,41.2 L73.49,41.2 L73.53,41.2 Z" id="path-1"></path>
                    </g>
                </g>
                <g id="KeyArt2_Ethic_LivingThings" transform="translate(104.000000, 19.000000)">
                    <g id="Mask">
                        <path d="M44.59,30.02 L64.48,30.02 L64.48,53.73 L44.59,53.73 L44.59,95.12 C44.59,99.4066667 45.56,102.386667 47.5,104.06 C49.44,105.733333 52.3533333,106.57 56.24,106.57 C57.8466667,106.57 59.4533333,106.503333 61.06,106.37 C62.218335,106.32294 63.3651708,106.121151 64.47,105.77 L64.47,127.84 C62.6818917,128.550813 60.8302171,129.089908 58.94,129.45 C55.7958402,130.043053 52.599018,130.31113 49.4,130.25 C39.76,130.25 32.1266667,127.583333 26.5,122.25 C20.8733333,116.916667 18.06,109.416667 18.06,99.75 L18.06,53.75 L0.18,53.75 L0.18,30.02 L5.18,30.02 C10.4,30.02 14.25,28.5133333 16.73,25.5 C19.256322,22.34388 20.5752114,18.3907572 20.45,14.35 L20.45,0.49 L44.56,0.49 L44.56,30.02 L44.59,30.02 Z" id="path-3"></path>
                    </g>
                </g>
                <g id="KeyArt5_Ethic_Growth" transform="translate(179.000000, 2.000000)">
                    <g id="Mask">
                        <path d="M26.78,145.84 L0.41,145.84 L0.41,0.41 L26.78,0.41 L26.78,55.26 C29.9392985,51.3871325 34.1363784,48.4942692 38.88,46.92 C43.4652825,45.300523 48.2873127,44.4523593 53.15,44.41 C58.6971529,44.2783227 64.2079465,45.3388776 69.31,47.52 C73.6450992,49.4335455 77.5037654,52.2814461 80.61,55.86 C83.669324,59.5039638 85.9312473,63.7484766 87.25,68.32 C88.7220912,73.2754377 89.4566329,78.4205991 89.43,83.59 L89.430699,145.84 L63.06,145.84 L63.06,88.21 C63.06,82.5833333 61.64,77.8933333 58.8,74.14 C55.96,70.3866667 51.3666667,68.51 45.02,68.51 C39.4666667,68.51 35.1066667,70.3533333 31.94,74.04 C28.6850579,77.9102335 26.8628173,82.7836676 26.78,87.84 L26.78,145.84 Z" id="path-5"></path>
                    </g>
                </g>
                <g id="KeyArt1_Ethic_Generic" transform="translate(277.000000, 0.000000)">
                    <g id="Mask">
                        <path d="M0.94,16.67 C0.853050378,12.2279731 2.60442668,7.94723308 5.78,4.84 C12.2584124,-1.58133424 22.7015876,-1.58133424 29.18,4.84 C32.297698,7.98484998 34.001672,12.2628355 33.9,16.69 C33.8097168,23.3110687 29.765329,29.2351032 23.6317966,31.7303952 C17.4982642,34.2256872 10.4668892,32.8075818 5.78,28.13 C2.66140265,25.1424979 0.916919013,20.9984444 0.96,16.68 L0.94,16.67 Z M4.15,147.84 L4.05,48.24 L30.78,48.24 L30.88,147.84 L4.16,147.84 L4.15,147.84 Z" id="path-7"></path>
                    </g>
                </g>
                <g id="KeyArt3_Ethic_Environment" transform="translate(319.000000, 45.000000)">
                    <g id="Mask">
                        <path d="M52.12,25.72 C48.7873344,25.6935034 45.4806535,26.3079893 42.38,27.53 C39.3888852,28.7247489 36.6858401,30.5415497 34.45,32.86 C32.0631342,35.3727194 30.2152852,38.3469737 29.02,41.6 C26.3427238,49.2765996 26.3427238,57.6334004 29.02,65.31 C30.2411901,68.6029573 32.1231012,71.6112925 34.55,74.15 C36.8039556,76.5013864 39.5304759,78.3486039 42.55,79.57 C45.6506535,80.7920107 48.9573344,81.4064966 52.29,81.38 C55.3375568,81.4314462 58.3684015,80.919525 61.23,79.87 C63.6810475,78.9579186 65.9574117,77.6320125 67.96,75.95 C69.7696714,74.4192164 71.2991537,72.5851913 72.48,70.53 C73.5420649,68.6916546 74.3845043,66.7349129 74.99,64.7 L98.49,72.54 C96.0968265,81.5336239 90.885508,89.5240785 83.62,95.34 C79.5146268,98.6133315 74.8999996,101.190901 69.96,102.97 C64.2871849,104.9859 58.299662,105.971403 52.28,105.88 C45.2917901,105.925746 38.3630844,104.593695 31.89,101.96 C25.6857809,99.4399381 20.0509902,95.6992804 15.32,90.96 C10.6056917,86.20861 6.8685563,80.5791252 4.32,74.39 C1.58694203,67.73054 0.226432465,60.5878648 0.32,53.39 C0.24322073,46.1687685 1.57471348,39.001805 4.24,32.29 C6.70441577,26.0926285 10.3948255,20.4566756 15.09,15.72 C19.7499582,11.0721348 25.2780846,7.38558464 31.36,4.87 C43.5617704,0.0188416044 57.0909553,-0.3356039 69.53,3.87 C74.4877977,5.63255764 79.1327929,8.17447723 83.29,11.4 C87.0558119,14.3488629 90.2544363,17.9574805 92.73,22.05 C95.0512907,25.8639809 96.809447,29.9932906 97.95,34.31 L74.04,42.31 C72.7240119,37.9737949 70.3412958,34.036984 67.11,30.86 C63.6966667,27.38 58.6966667,25.64 52.11,25.64" id="path-9"></path>
                    </g>
                </g>
            </g>
            <path d="M436.00309,134.646001 C435.91614,130.203974 437.667517,125.923234 440.84309,122.816001 C447.321502,116.394666 457.764678,116.394666 464.24309,122.816001 C467.360788,125.960851 469.064762,130.238836 468.96309,134.666001 C468.872807,141.287069 464.828419,147.211104 458.694887,149.706396 C452.561354,152.201688 445.529979,150.783582 440.84309,146.106001 C437.724493,143.118499 435.980009,138.974445 436.02309,134.656001 L436.00309,134.646001 Z" id="Path"></path>
        </g>
    </g>
</svg>