<?xml version="1.0" encoding="UTF-8"?>
<svg width="1440px" height="380px" viewBox="0 0 1440 380" version="1.1" xmlns="http://www.w3.org/2000/svg" xmlns:xlink="http://www.w3.org/1999/xlink">
    <!-- Generator: Sketch 49.1 (51147) - http://www.bohemiancoding.com/sketch -->
    <title>tracking</title>
    <desc>Created with Sketch.</desc>
    <defs></defs>
    <g id="tracking" stroke="none" stroke-width="1" fill="none" fill-rule="evenodd" stroke-linecap="round">
        <g id="tracking-illo" transform="translate(0.000000, 3.000000)">
            <path d="M0,293.126137 L20.1811885,293.126137 L22.4657378,290.41865 L29.2463559,298.869254 L32.3763346,292.591561 L40.3744054,293.074827 L48.5460297,300.560091 L52.7190482,298.387181 L56.1961341,305.631408 L63.3247185,307.321051 L72.1914163,295.972041 L78.7984809,307.321051 L85.4055454,307.321051 L88.7090777,303.216268 L96.0112158,296.455307 L99.836268,298.869254 L112.180911,298.869254 L115.484443,293.074827 L121.743541,300.319054 L133.913771,298.869254 L136.00071,305.148141 L140.868802,304.664874 L146.084861,316.738188 L148.866873,321.085201 L158.776611,321.085201 L162.428109,318.013885 L165.557229,325.673251 L169.035174,320.360898 L172.164293,327.605125 L185.726389,327.605125 L188.681955,331.709908 L193.550047,329.294768 L196.810539,322.050541 L202.069637,322.533808 L205.198757,328.812695 L209.719742,322.774845 L212.848861,328.329428 L218.760852,317.462491 L229.714489,317.704721 L232.322089,323.258111 L238.407633,320.360898 L241.363199,327.362895 L249.534823,327.605125 L251.968869,332.917478 L257.880861,332.917478 L261.00998,335.814692 L265.182999,330.019072 L275.440703,330.985605 L282.047767,319.153328 L294.91393,321.085201 L297.695942,315.289581 L302.737588,320.360898 L308.823132,314.565278 L310.735659,316.738188 L316.473237,315.531811 L321.341329,319.153328 L325.514347,309.252924 L334.555458,305.872444 L345.857061,305.872444 L348.116694,310.219458 L352.116159,306.596748 L356.288319,307.321051 L358.200845,301.525431 L371.76294,303.457304 L382.542164,296.938574 L387.932635,298.628217 L393.843767,295.488774 L399.059825,300.076824 L413.838514,300.319054 L422.531658,292.591561 L425.487224,295.731004 L430.703283,292.591561 L438.005421,293.315864 L440.787433,297.903914 L444.612485,293.315864 L448.089571,299.111484 L451.914623,296.213077 L460.26066,297.179611 L468.258731,290.41865 L479.385921,293.315864 L488.600586,288.00351 L506.509253,290.659687 L512.420385,288.00351 L520.418456,293.799131 L526.677554,295.488774 L531.024126,290.900724 L539.022197,296.938574 L543.542322,295.006701 L553.104953,296.213077 L557.103559,291.142954 L561.103024,295.731004 L564.58011,292.591561 L567.883642,297.179611 L573.0997,297.662877 L576.924752,292.832597 L581.097771,296.455307 L587.008903,298.144951 L590.138022,294.523434 L600.570139,296.696344 L603.525705,291.62622 L609.784803,290.41865 L613.957822,285.8306 L624.041972,287.03817 L627.345504,288.970044 L633.257495,285.8306 L644.906206,287.762474 L652.904276,283.174424 L659.163375,287.279207 L667.161445,286.79594 L671.160051,291.383991 L676.028143,292.591561 L680.201162,290.41865 L689.067859,285.191018 L694.631884,280.844004 L701.499441,277.208169 L706.628561,290.503371 L714.105111,290.261141 L717.582197,295.056761 L725.927375,280.360738 L740.706064,279.154361 L742.966556,281.810538 L746.443642,278.187828 L749.747175,280.844004 L753.398673,273.116511 L760.874365,274.566311 L766.090423,269.736031 L769.220402,271.426867 L773.740528,268.287424 L781.31932,264.012006 L785.839446,262.321169 L790.186018,260.631526 L794.533449,262.804436 L798.358502,266.001155 L811.398218,257.051773 L814.353784,258.983646 L819.396289,255.601973 L830.697033,250.828969 L835.391571,255.175982 L838.173583,252.760842 L842.520155,253.968412 L845.127755,249.622592 L858.168331,249.622592 L860.25441,253.003072 L863.731496,247.690718 L867.730961,251.312235 L874.859546,251.071198 L877.640699,240.531212 L881.292197,238.669741 L889.104686,235.282101 L891.724314,238.186474 L900.069492,233.541148 L904.416064,229.195328 L909.285015,233.783378 L921.107279,233.783378 L927.887897,230.402898 L932.408882,233.783378 L938.494427,231.127201 L947.361124,231.851505 L955.707162,223.229073 L960.227287,233.61155 L966.139278,235.06135 L969.963471,228.299196 L976.570536,235.785653 L981.613041,230.4733 L985.959613,233.85378 L997.522405,230.284766 L1004.73691,225.401983 L1010.44441,221.38192 L1015.83403,216.125649 L1019.65908,221.438003 L1026.78766,215.642383 L1030.78627,219.989396 L1034.61132,212.432538 C1034.61132,212.432538 1041.04483,208.852785 1041.56635,209.093821 C1042.08787,209.334858 1046.26089,205.088078 1046.26089,205.088078 L1050.95457,200.741064 L1055.82352,204.363774 L1062.42973,201.380647 L1065.73326,197.757937 L1069.73272,203.553557 L1077.03486,205.471111 L1089.72661,206.436451 L1096.33368,201.607364 L1108.1568,199.476218 L1112.67778,195.272395 L1118.93688,199.134948 L1135.28013,190.668832 L1139.27874,194.532579 L1149.5373,204.021311 L1156.31792,203.055971 L1159.27348,193.297564 L1168.31459,188.084251 L1181.52872,189.532858 L1185.52733,183.16925 L1192.30795,184.703771 L1199.95805,185.257439 L1206.0436,163.907792 L1210.39017,163.907792 L1218.38824,157.429632 L1224.64734,153.253254 L1232.29744,146.704692 L1236.12249,149.601906 L1247.24968,153.792603 L1252.46574,149.928857 L1259.07281,141.861287 L1266.20139,138.964073 L1274.54657,132.997818 L1279.41466,129.502786 L1282.19667,134.331873 L1285.67376,132.401193 L1297.49688,125.96599 L1302.01787,120.553403 L1308.79849,124.176113 L1312.44913,121.760973 L1320.64137,99.1035232 L1323.9449,90.7221281 L1327.07402,95.3101782 L1330.204,93.8615715 L1332.11653,97.0010149 L1343.24372,100.225179 L1349.85078,93.7052556 L1354.19735,91.3330726 L1357.84885,86.5314306 L1363.75998,74.5989205 L1369.49756,78.2216305 L1374.1921,74.5989205 L1376.62615,76.7730238 L1382.52783,63.8596614 L1390.17793,63.8596614 L1399.91412,60.69158 L1403.73917,51.3448448 L1410.34623,51.5870748 L1413.99773,55.2085916 L1421.64698,37.0974278 L1433.81807,26.3581688 L1442,13.4030426" id="Page-1" stroke="#9AA9BB" opacity="0.600000024"></path>
            <path d="M1442,0.235191376 L1433.8145,13.1959626 L1421.63897,23.9399011 L1413.98553,42.0589566 L1410.33244,38.4358618 L1403.7225,38.19472 L1399.89578,47.5455279 L1390.15535,50.7149898 L1382.50191,50.7149898 L1376.59766,63.6327852 L1374.16255,61.4589283 L1369.46597,65.0820232 L1363.59524,63.1719896 L1357.68153,75.1096991 L1354.15909,80.8565125 L1349.81063,83.2309229 L1342.31105,88.7413696 L1333.73961,85.7569422 L1330.78362,83.0315632 L1327.72964,85.7569422 L1322.80355,82.0073077 L1319.74871,88.3044494 L1311.71363,111.495838 L1308.26597,112.875837 L1300.67872,110.263866 L1294.07823,115.613154 L1288.46193,121.829119 L1285.3091,120.038463 L1281.66374,121.829119 L1277.7227,119.951317 L1274.76671,122.426005 L1265.70275,127.288234 L1259.19939,128.394859 L1255.25835,136.194959 L1251.613,138.657708 L1248.55902,141.393831 L1239.19851,138.409404 L1232.59802,133.894562 L1228.55813,139.068365 L1224.6171,140.286012 L1218.70511,144.737584 L1215.1586,145.968361 L1211.02073,149.686958 C1211.02073,149.686958 1208.16358,150.91893 1208.36042,151.055019 C1208.49164,151.146542 1205.28265,157.829272 1198.73345,171.103209 L1192.49741,171.15096 L1189.34458,174.024366 L1184.91102,169.535788 C1184.91102,169.535788 1179.09788,175.940369 1179.39356,176.077652 C1179.68925,176.213742 1171.2158,176.761683 1171.2158,176.761683 L1166.5854,178.540402 L1159.19585,182.907216 L1154.66344,192.497972 L1146.48567,193.182002 L1136.43667,182.025019 L1125.81434,187.893597 L1119.48977,188.651642 L1112.10021,186.188892 L1107.27298,189.622178 L1099.09521,193.614148 L1095.84353,192.108802 L1089.63672,195.528956 L1085.99137,194.298178 L1076.13834,195.255583 L1072.1973,192.420377 L1065.79279,186.53628 L1062.83765,189.272403 L1055.54609,191.983456 L1051.21137,189.931364 L1046.18644,193.078144 L1042.04857,198.150477 L1034.54297,202.017101 L1030.1266,208.646111 L1026.3824,205.088674 L1019.28853,209.604709 L1015.74202,206.047272 L1010.32342,211.369103 L1003.80372,215.795606 L997.399214,222.773197 L984.098529,223.458421 L980.945698,220.721105 L976.413288,226.057261 L969.713091,218.805102 L965.181541,225.921171 L961.338491,225.23714 L956.806081,214.377406 L949.811059,218.867178 L938.677301,221.303665 L932.076812,224.040982 L924.194734,221.167575 L920.055998,224.177071 L910.104982,224.451639 L904.489538,220.208977 L899.464606,223.268612 L888.922219,228.367207 L883.404764,230.829957 L877.19709,232.146686 L873.94627,241.772061 L862.812512,241.362598 L859.856518,243.825347 L844.683732,242.593376 L840.742693,246.561471 L837.589862,245.74135 L834.535879,247.520069 C834.535879,247.520069 830.495992,242.73066 830.791677,243.141317 C831.087362,243.551974 816.99847,248.327058 816.99847,248.327058 L814.534998,251.473838 L810.199425,248.463148 L798.278319,259.059059 L794.238432,256.149839 L790.297393,253.276432 L781.430269,256.287122 L773.261101,260.339975 L769.123225,263.076098 L765.379023,262.392067 L760.452939,266.634729 L753.063383,265.676131 L748.826659,271.970885 L745.47699,271.013481 L742.520996,273.47623 L740.057524,271.560228 L726.165469,273.47623 L717.298346,288.801862 L713.750981,284.42311 L707.347329,284.696484 L703.307442,268.549538 L698.677043,275.254949 L694.637156,273.886888 L688.726027,278.265639 L680.351426,282.828232 L675.720168,285.153698 L671.187758,283.101606 L667.246719,278.176107 L660.350545,279.817542 L652.073933,275.43879 L643.89617,278.722854 L633.945153,277.628166 L626.555597,279.954825 L623.7973,278.58557 L614.634491,278.176107 L608.624514,282.417575 L602.811374,283.374979 L599.460846,289.458436 L590.200049,287.206984 L585.963324,290.627138 L582.022285,289.458436 L576.800516,285.564355 L571.873572,289.458436 L564.287179,284.744234 L560.937511,287.617641 L556.897623,282.280291 L551.971539,288.028298 L543.695787,287.891015 L539.163377,289.458436 L530.296254,282.828232 L525.862692,287.343074 L521.231434,286.659043 L512.265463,280.638856 L506.255486,283.785636 L488.619228,280.91223 L478.865049,285.290981 L467.14078,283.101606 L459.653235,289.458436 L452.263679,288.848419 L448.519477,291.175078 L443.987067,285.017608 L440.834236,289.458436 L437.97709,285.701639 L430.587534,284.606951 L425.168928,287.206984 L421.81926,284.05901 L413.148973,291.996393 L399.256058,291.448452 L394.133137,288.028298 L387.630638,291.585736 L381.915486,289.458436 L371.176262,295.964488 L357.383055,293.364454 L354.230224,299.111268 L347.924561,299.932582 L345.559938,296.237861 L334.130494,296.511235 L324.081489,300.753897 L320.238439,309.64749 L316.593085,307.732682 L310.583108,309.64749 L307.430277,307.047457 L302.306496,312.795464 L297.183575,308.416712 L293.735058,313.890152 L281.813092,313.89254 L274.932391,327.506304 L264.670217,326.540543 L260.49538,332.338688 L256.788139,329.439019 L251.45033,329.439019 L249.015223,324.12435 L242.50155,321.552968 L237.96914,313.615585 L232.254848,317.44759 L228.609494,310.195431 L216.195006,310.195431 L212.747349,324.052724 L208.80545,315.12093 L205.160096,320.731653 L201.622186,318.69508 L195.267529,318.56854 L193.006052,325.815924 L188.135839,328.230923 L185.178985,324.12435 L171.61098,324.12435 L168.480497,316.876967 L164.740593,321.387034 L162.025273,309.15685 L157.297745,314.927539 L148.70224,313.931934 L139.819645,296.424089 L136.381443,297.219141 L132.94324,291.649006 L122.342404,292.842776 L114.606449,286.277036 L111.024702,290.455235 L98.7047647,290.85276 L94.6932424,287.868333 L90.5390347,293.837188 L86.5275125,295.827204 L84.3786362,300.402928 L80.3679735,299.606683 L71.4853784,287.470807 L62.460098,301.994225 L55.7272388,299.806042 L52.4325816,292.046531 L48.5646043,294.633433 L39.6820092,284.683352 L31.9460546,284.683352 L28.6513974,291.649006 L21.6314483,284.683352 L19.5616507,289.630339 L0,289.458436" id="Page-1" stroke="#0000FF" stroke-width="1.5"></path>
        </g>
    </g>
</svg>