<?xml version="1.0" encoding="utf-8"?>
<!-- Generator: Adobe Illustrator 22.0.1, SVG Export Plug-In . SVG Version: 6.00 Build 0)  -->
<svg version="1.1" xmlns="http://www.w3.org/2000/svg" xmlns:xlink="http://www.w3.org/1999/xlink" x="0px" y="0px"
	 viewBox="0 0 800 800" enable-background="new 0 0 800 800" xml:space="preserve">
<g id="holistic-holdings">
	<g>
		<linearGradient id="SVGID_1_" gradientUnits="userSpaceOnUse" x1="393.4893" y1="733.2145" x2="268.6891" y2="733.2145">
			<stop  offset="0" style="stop-color:#646DFF"/>
			<stop  offset="1" style="stop-color:#92A4FC"/>
		</linearGradient>
		<path fill="url(#SVGID_1_)" d="M356.9,689.7c-1.5,40.7-43.6,46-60.2,40.5c-7.5-2.5-13.5,2.1-10.8,9.2c1.5,3.9,6.3,4.8,6.5,9
			c0.2,3.9-1.5,7.9-15.7,7.9c-8.4,0-14.1,12.3,3.5,17.1c16.9,4.6,71.2,12.2,106.3-37.1C412.7,699.4,356.9,689.7,356.9,689.7"/>
		<linearGradient id="SVGID_2_" gradientUnits="userSpaceOnUse" x1="490.8843" y1="469.1644" x2="490.8843" y2="96.2378">
			<stop  offset="0" style="stop-color:#281A92"/>
			<stop  offset="1" style="stop-color:#5E66F7"/>
		</linearGradient>
		<path fill="url(#SVGID_2_)" d="M453.7,96.8c17.7-3.8,68.2,11.3,88.9,23.5c20.7,12.2,55,29.5,76,50.1
			c36.4,35.8,79.2,100.4,83.2,114.6c27.8,98.2-44.4,166-185.7,182.9C396.3,482.2,263.9,371.3,274.8,335
			C292.4,276,438.3,100.2,453.7,96.8z"/>
		<linearGradient id="SVGID_3_" gradientUnits="userSpaceOnUse" x1="542.5886" y1="103.9454" x2="422.0638" y2="103.9454">
			<stop  offset="0" style="stop-color:#F1F8FE"/>
			<stop  offset="1" style="stop-color:#8999FC"/>
		</linearGradient>
		<path fill="url(#SVGID_3_)" d="M528.2,111c-20.6-12.2-40.3-26.6-43.9-30.6c-3.6-4.1-8.5-9.5-13-5s-16.6,10.4-22.8,14.4
			c-6.3,4.1-16.1,9-26.4,19.4c0,0,7.2,12.4,15.3,24.9c4.6-11.1,23.7-25.2,38.9-22.6c20.3,3.6,25.8,23.7,66.4,8.7
			C536.5,116.2,531.5,112.9,528.2,111"/>
		<path fill="#646DFF" d="M209.7,156.8c53.4-49.7,83.7-70.1,100.4-77.5c70.6-31.1,103.8,12.1,103.8,29.3c0,19.4,30.9,42.9,44.3,53
			c24.2,18.1,28.1,48.3,5.4,58.9C270.8,310.1,156.3,206.5,209.7,156.8z"/>
		<linearGradient id="SVGID_4_" gradientUnits="userSpaceOnUse" x1="429.8077" y1="76.7224" x2="262.3037" y2="76.7224">
			<stop  offset="0" style="stop-color:#F1F8FE"/>
			<stop  offset="1" style="stop-color:#8999FC"/>
		</linearGradient>
		<path fill="url(#SVGID_4_)" d="M407.7,102.2c4.3,5.2,9.1-3.8,12.3-4.7c1-0.6,2.1-1.1,3.3-1.5c1.7-1.1,2.7-2.4,2.7-2.4
			s8.2-9.5,0.4-13.9c-9.1-6.6-20.2-16.6-25.3-22.3c-4.4-4.9-15.5-11-19.2-13.3c-3.7-2.2-7.4-11.1-13.3-12.6
			c-5.9-1.5-18.5,13.3-26.7,23c-8.2,9.6-15.6,14.8-31.9,23c-10,5-25.1,15.2-47.8,33.5c12.1,13.2,35.4,12.8,51.4,8.2
			c23.8-6.8,29.6-24.5,49.1-30.9C377.9,83.1,394.3,85.8,407.7,102.2"/>
		<linearGradient id="SVGID_5_" gradientUnits="userSpaceOnUse" x1="380.1245" y1="81.3222" x2="380.1245" y2="375.7988">
			<stop  offset="0.2917" style="stop-color:#FFFFFF"/>
			<stop  offset="1" style="stop-color:#B4C0FD"/>
		</linearGradient>
		<path fill="url(#SVGID_5_)" d="M298.2,364.2c13.8-52.4,50-93.5,130.5-104.2c52.1-6.9,74.9-28.5,81.8-40.2
			c8.8-14.9,9.3-33.3-3.6-52c-14.1-20.5-49.2-34-64.1-39.2c-14.8-5.2-17.9-13.9-15.6-20.8c2.1-6.4,19.2-16.7,19.2-16.7
			s-7.8-2.8-17.4-9.9c0,0-5.1,3.5-18,14.1c-13.1,10.7-18.8,29.1,2.9,43.6c17.1,11.4,37.1,23.7,35.6,48.2
			c-1.5,24.5-44.2,35.8-112.7,44.5c-93,11.7-95.6,47.4-92.6,68.7C247.5,323.8,285.3,405.8,298.2,364.2z"/>
		<path fill="#080627" d="M433.8,321.5c-4-2.1-10.8-7.1-15.2-12.7c2.7,0.4,5.1,0.7,6.9,0.9c6.9,0.7,8.7-0.7,6.2-2.9
			c-4.1-3.5-12.8-10.4-15.8-18.7c5.3,0.1,8.8,0.8,8.6,0.3c-0.2-0.6-1.9-2.1-4.8-4.7c-2.9-2.6-7.8-9.8-9-13.1
			c0.8,0.1,8.6,0.5,8.6-0.3c-0.2-1.7-7.8-5-10.7-10.9c0.8,0,5.6,0.4,5.6-0.6c0-1-3.7-2.6-6.3-7.9c-2.3-4.8-3.3-12.2-4.1-16
			c-0.7-3.8-1-6-1.7-6.2c-0.7-0.2-1.4,6.5-3.5,15.1c-2.1,8.6-4.7,10.6-7.3,12.8c-1.5,1.3-1.8,1.6,0.2,2.1c1,0.3,3.3,0.4,6,0.5
			c-1.6,2.7-3.5,4.8-5.6,6.7c-3.3,2.9-4.2,2.9-4.8,4c-0.5,1.1,5.1,1.2,6,1.1c-1.6,5-7.4,11.2-13.1,14.7c-2.4,1.4-0.3,1.3,2.2,1.5
			c0.9,0.1,4.6,0.2,9.3,0.4c-3.4,10.5-11.7,13.2-13.8,16.3c-1.6,2.4,5.1,1.7,13.7,2.4c-4.8,9.8-25.4,14.5-26.1,15.7
			c-1.7,3.1,35.7,5,47.5,5.1C424,327.1,439.2,324.4,433.8,321.5z"/>
		<linearGradient id="SVGID_6_" gradientUnits="userSpaceOnUse" x1="328.6089" y1="566.0816" x2="328.6089" y2="179.9667">
			<stop  offset="0.5654" style="stop-color:#29A9DD"/>
			<stop  offset="1" style="stop-color:#81FCD0"/>
		</linearGradient>
		<path fill="url(#SVGID_6_)" d="M552.5,441c-22.4-28.3-41.1-13.8-100-32.5c-136.5-43.3-135.3-134-198.7-195
			c-29.5-28.4-50.8-39.2-78.2-31c-16.1,4.8-56.8,45.7-81.3,102.5c-39,90.3-13.9,209.7,56.9,257.7s344.4,11.9,388.3-22.2
			C560,504.7,614.5,519.1,552.5,441z"/>
		<path fill="#080627" d="M269.1,348c-9.5-3.5-26.5-19.2-35.9-31.9c13.2-1.5,20.8-5.2,20.3-6.9c-2.9-8.9-21.7-11.9-28.3-28.7
			c9.2-0.2,16.2-0.4,18.2-0.5c6.1-0.3,11.1,0,5.4-3.6c-13.3-8.4-26.6-22.9-31-35.1c2.4,0.4,5,1,7.6,1.7c11.7,3.1,12.2,1.1,9.8-0.7
			c-6.8-5-7.8-8.2-13.2-13.8c-7.2-7.4-8.7-12.4-11.3-20.7c4.6,0.5,9.6,1.2,15,2.3c4.9,1,4.5-2,0.6-5.5c-18-16.2-21.6-35.1-21.9-37.2
			c-1.6-11.8-6.8-35.6-8.5-35.2c-2,0.5-2.3,6-4.5,15.8c-1.2,5.5-4.2,29.7-12,41.1c-8.9,12.9-18.1,17.5-18.1,20.1
			c-0.1,2.6,5.7,0.8,12.5-0.1c1.4-0.2,3.1-0.5,5.2-0.7c-3.7,9.5-9.2,17.1-16.2,26.1c-8.2,10.6-12.7,8.9-12.8,11.5
			c-0.1,2.6,2.9,1.7,16.5-0.4c1.9-0.3,4-0.7,6.1-1.2c-4.5,8.1-14.7,20-21,25.6c-7.3,6.5-11.5,10-12,11.5c-0.5,1.5,10.7-0.7,26.5-0.2
			c0,0,0.1,0,0.2,0c-7.8,14.3-27,25.9-36.1,31.9c-5.7,3.8-0.3,17.9,0,26.2c0.7,27.4,37,10.1,67.1,9.6c20.9-0.4,50.4,5.9,69.1,3.9
			C273.2,351.8,271,348.7,269.1,348z"/>
		<path fill="#080627" d="M376.6,144.5c-2.6-1.4-5.2-4-6.3-6.3c1.3-0.1,7.1-0.3,6.1-1c-1.8-1.2-5.7-3.6-6.8-6.5
			c0.3,0,5.5,0.4,5.4,0.1c-0.1-0.3-0.8-0.9-2-2.1c-1-1-2.6-3-3.4-4.5c0.2,0,4.1,0.8,4.1,0.3c0-0.5-0.8-0.2-2.2-2.1
			c-1.3-1.9-2.9-3-3.9-5.1c0.6,0,3,0.2,3-0.3c0-0.4-1.7-1.1-2.8-3.5c-1-2.1-1.5-5.3-1.8-7c-0.3-1.7-0.4-2.6-0.8-2.7
			c-0.3-0.1-0.7,2.8-1.6,6.6c-1,3.7-2.2,4.6-3.3,5.6c-0.7,0.5-0.8,0.7,0.1,0.9c0.4,0.1,1.3,0.2,2.4,0.2c-0.9,1.6-1.9,2.9-3,3.9
			c-1.6,1.5-2.1,1.5-2.3,2.1c-0.3,0.6,3.2,0.6,4.2,0.6c-1,2.1-3.1,4.3-5.2,5.7c-1,0.6-0.1,0.6,0.9,0.7c0.4,0,1.8,0.1,3.6,0.2
			c-1.2,4-6.5,5.9-6.7,6.3c-0.5,0.9,2.3,1.7,5.3,2c-1.3,2.3-3.6,3.9-5.4,4.8c-1.9,0.9,0,1.7,5.9,2.9c4,0.7,11.4,0.1,15.1-0.5
			C377.4,145.6,377.4,145,376.6,144.5z"/>
		<path fill="#080627" d="M348.1,532.1c-91.2,34.8-140,50.6-122,73.5s107.6,37,107.6,37l118.8-64.8L348.1,532.1z"/>
		<path fill="#080627" d="M707.1,501.3c-3.5,23.3-21.4,102.8-82.9,147.9c-61.5,45.1-85.8-44.1-75.9-67.5
			c9.9-23.3,50.6-40.7,50.6-40.7L707.1,501.3z"/>
		<linearGradient id="SVGID_7_" gradientUnits="userSpaceOnUse" x1="673.9081" y1="528.8717" x2="673.9081" y2="346.7348">
			<stop  offset="0" style="stop-color:#281A92"/>
			<stop  offset="1" style="stop-color:#5E66F7"/>
		</linearGradient>
		<path fill="url(#SVGID_7_)" d="M756.5,361.3c-0.3,63.7-17.4,98.1-54.2,135.2c-78.3,78.8-129.1-7.4-105.1-34.3
			c25.2-28.2,46.3-27,60.4-93.4C661.3,351.5,756.6,333.2,756.5,361.3z"/>
		
			<linearGradient id="SVGID_8_" gradientUnits="userSpaceOnUse" x1="697.9333" y1="244.1916" x2="697.9333" y2="431.6356" gradientTransform="matrix(0.8421 -1.364231e-02 -1.364231e-02 1.0228 100.672 -1.345)">
			<stop  offset="0" style="stop-color:#F1F8FE"/>
			<stop  offset="1" style="stop-color:#8999FC"/>
		</linearGradient>
		<path fill="url(#SVGID_8_)" d="M767.5,314.7c0,0,10.9-15.5,10.7-27.5c-0.5-20.4-17.1-43.9-49.2-34.6c0,0-7.8-11.1-26.2-13.6
			c-26.8-3.6-59.7,30.3-39.3,74.8c0,0,21.8,1.5,32.3,17.8c10.5,16.3-5.5,44.4-37.1,45.7c-5.7,0.2-54.2,5.1-72.2,6.3l-3.2,23.8
			c45.4-21.3,74.4,4.9,110.1,19c33.7,13.3,92.7-9.8,89.5-71.4C781.7,331.7,767.5,314.7,767.5,314.7"/>
		<path fill="#F8F8F8" d="M704.6,316.3c0,0,9.5-29.7-29.7-43.6c-27-9.6-75,17.6-55.3,54.3c7.5,14,34.1,15.8,30.8-5.5
			c0,0,12-7.7,20.5,3.7c7.9,10.5,6.7,32.1-20.6,31.6c-29.4-0.5-64.5,18.7-80.6,18l22.8,9.4c66.6-15.9,59.8,16.4,107,7.4
			c23.4-4.5,15.4-26.3,15.4-26.3c11.8-7.4,14.9-22.4,9.9-34.1C719.8,319.4,704.6,316.3,704.6,316.3z"/>
		<path fill="#080627" d="M672,449.8c-19.4-10-61.5-24.9-73.6-62.3c11.4-0.1,22.9-0.8,35.7-4.1c3.8-1,0.2-6.1-2.7-8.1
			c-5.8-3.9-8.7-5-24.2-15.3c-12.7-8.5-22.3-14.8-26.7-19.4c19.5-0.2,25.8-0.1,26.1-2.4c0.4-3-6.3-6.6-16.1-16.5
			c-7-7-12.3-14.4-16.6-23c3.4,0.2,6.4,0.5,8.7,0.6c14.6,1.1,13.5,0.3,12.1-3.7c-1.4-4.1-4.2-4.3-14.2-15.5
			c-6.5-7.3-11.7-14.6-16.1-24.1c0.2,0,0.4,0,0.5,0c4.9,0,9.8,0.9,9.8-1.4c0-2.4-9.2-6-15.7-18.7c-5.8-11.3-8.2-28.7-10-37.7
			c-0.9-4.5-1.5-8-2.1-10.5c-1.2-3.8-1.8-5.5-3.2-5.5c-1.9-0.1-2.5,14-4.3,22c-1,4.5-2.2,9.6-3.7,15c-5.5,20.1-11.9,25-18.4,30
			c-3.7,2.9-4.5,3.8,0.4,5c1.8,0.5,5.3,0.8,9.7,1.1c-9.9,17.2-35.4,34.2-35.6,37c-0.2,3.3,3.1,4.2,18.1,3.6c1.7-0.1,3.6-0.1,5.8-0.1
			c-5.9,17.9-24.3,33.5-41.3,44.8c-7.9,5.2-1.1,4.9,7.3,5.6c2.5,0.2,10.3-0.2,20.4-0.9c-1.3,1.8-2.6,3.8-4.2,6
			c-8.9,13-35.6,27.2-39.7,30c-4.3,3-0.3,5.8,3,6.1c6.4,0.6,18.2,0.3,32.2-0.3c-10.4,32.1-31.7,49.7-85.1,66.9
			c-18,5.8-4.5,24.6,13.6,28.6c33.4,7.4,135.9,9.1,185.9,1.9C664.8,476.6,694.9,461.5,672,449.8z"/>
		<linearGradient id="SVGID_9_" gradientUnits="userSpaceOnUse" x1="250.5402" y1="544.1396" x2="250.5402" y2="285.1689">
			<stop  offset="0" style="stop-color:#26A6DD"/>
			<stop  offset="0.7569" style="stop-color:#81FCD0"/>
		</linearGradient>
		<path fill="url(#SVGID_9_)" d="M142.6,542.5C93.5,496.6,77,476.4,77,476.4C43,374.8,94.3,285.2,94.3,285.2
			c55,8.7,84.7,42.8,102.3,106.2c8.7,31.2,30,33.9,53.1-9.2c11.2-20.9,35.4-20.3,44.4,4.4c6.2,16.9,11.6,58.3,28.7,64.8
			c20.2,7.6,21.7-17.3,37.7-23.6c12.6-5,22.6-2.4,35.2,11.6c17,18.9,10.2,33.1,40,56.1C435.7,495.3,155.5,554.5,142.6,542.5z"/>
		<linearGradient id="SVGID_10_" gradientUnits="userSpaceOnUse" x1="134.5562" y1="396.7443" x2="113.5123" y2="596.9635">
			<stop  offset="0" style="stop-color:#F1F8FE"/>
			<stop  offset="1" style="stop-color:#8999FC"/>
		</linearGradient>
		<path fill="url(#SVGID_10_)" d="M153.6,469.7c31.6-8,28-35.4,19.3-49.2c-17.7-28.2-53.5-28.3-75.4-18c-22,10.3-31.4,24-31.4,24
			c-39.5,5.2-48.2,45.1-43.2,65.9c3.5,14.4,22.7,25.3,22.7,25.3c-8.4,41.6,21.8,70.2,47.9,76.4c30.7,7.3,71.8-0.6,100.5-27.9
			c54.9-52.2,25.6-56.8,10.2-53.5c-15.5,3.3-55.5,36.4-68.2-4C128.8,486.1,153.6,469.7,153.6,469.7"/>
		<path fill="#F8F8F8" d="M271.4,482.5c0,0-36.1-7.1-70.4,13.9c-13.7,8.4-20.8,21.7-34.3,25.6c-18,5.1-27.6-11.7-25.9-23.8
			c1.5-10.5,12.1-14.1,12.1-14.1c8.3,13.1,24.5,0.8,25.9-6.4c1.6-8.2-4.6-20.8-11.2-24.7c-10-6-27.5-10.4-40.7-4.6
			c-11.5,5.1-21.9,14.7-27,30c-3.9,11.6,2.5,25,2.5,25s-12,5.3-12.3,18.1c-0.2,7.7,6.2,23.2,21.1,26c0,0,5.7,16.3,27.4,16
			c33.2-0.3,54.8-30.7,66.7-38.5c34.1-22.3,46.8-10.4,46.8-10.4L271.4,482.5z"/>
		<path fill="#646DFF" d="M246.9,503.2c57.8-26,114.9-39.5,188.2-27c81,13.8,125.2-5.3,142.2-13.7c8.1-4,21.2-14.2,26.3-18.4
			c9.5-8,15.9-2.7,16.4,4.1c0.6,9.2-14.3,19.5-11,27.5c4.6,11.2,24-4.3,35.7-11.3c13-7.8,19.6,2.2,17,10.4
			c-2.6,8.3-24.6,32.4-15.5,39.5c9.5,7.3,23.2-5.8,39-19c16.3-13.7,25.2-36.6,37.8-30.2c9.3,4.6-7.6,41.6-38.7,66.7
			c-71,57.3-172.7,53.8-279.8,37.6c-40.4-6.1-103.1,11.9-117.9,12.6L246.9,503.2z"/>
		<linearGradient id="SVGID_11_" gradientUnits="userSpaceOnUse" x1="412.0052" y1="520.7857" x2="619.9628" y2="520.7857">
			<stop  offset="0" style="stop-color:#F1F8FE"/>
			<stop  offset="1" style="stop-color:#B4C0FD"/>
		</linearGradient>
		<path fill="url(#SVGID_11_)" d="M438,527.9c9.9,0.4,16.8-1.1,21.3-2c4.3-0.9,10.1-4,7.4-7.6c-2.9-4-24.4,0.2-31.4-6.3
			c-6-5.5,0.2-9.8,6.2-10.4c6.8-0.6,17.6-0.1,22.5,0.2c27.2,1.8,31.9,3.8,53.5,2.3c21.6-1.5,23.6-2.7,41-6
			c15.4-2.9,19.7-10.9,25.5-5.6c2.3,2.1,5.3,7.2-6,14.4c-7.3,4.7-2.7,12.9,1.1,13.4c15.1,2,20.8-3,30.8-2.3
			c11.2,0.8,16.2,15.4-2.3,19.8c-18.7,4.4-87.5,17.9-118.8,11c-27.8-6.1-72.1,1.1-76.2-10.1C408.6,528,424.2,527.3,438,527.9"/>
		<linearGradient id="SVGID_12_" gradientUnits="userSpaceOnUse" x1="438.9807" y1="725.7428" x2="438.9807" y2="519.5048">
			<stop  offset="0" style="stop-color:#4D53E1"/>
			<stop  offset="1" style="stop-color:#808EFD"/>
		</linearGradient>
		<path fill="url(#SVGID_12_)" d="M605.2,615.2c-15.3,0.9-19.9-8.2-19.9-36.1c0-27.9-18.4-53.3-45.9-58.4
			c-34.4-6.4-80,14.2-122.4,63c-55.3,63.6-138.5,53.4-173.9,29.7c-3.3,3.6-7.5,9.5-9,15.9c-3,12.8-5.5,25.8,3.3,37.2
			c7.1,13.2,24.7,24.8,50.1,36.6c33.8,15.6,213.2,28.3,241.1,20.2c27.9-8.1,74.7-44.1,86.4-54.9c11.7-10.8,31.4-38.7,31.4-38.7
			C648.3,612.5,620.5,614.3,605.2,615.2"/>
		
			<linearGradient id="SVGID_13_" gradientUnits="userSpaceOnUse" x1="93.7854" y1="583.2056" x2="322.367" y2="587.1955" gradientTransform="matrix(0.9998 -1.745241e-02 1.745241e-02 0.9998 33.2972 30.4614)">
			<stop  offset="0" style="stop-color:#8999FC"/>
			<stop  offset="3.300108e-02" style="stop-color:#7683FE"/>
			<stop  offset="1" style="stop-color:#B7D0F9"/>
		</linearGradient>
		<path fill="url(#SVGID_13_)" d="M260.3,483.9c-18.7,5.5-46.8,18.6-65.1,33.5c-79.1,64.7-61.2,143.9-39,184.7
			c25.2,46.3,57,53.1,62.7,46.1c4.4-5.5-3.3-12-5.9-21c-3.2-11,8.6-9.6,20.7-1.7c12.9,8.5,27.4,8.6,27.6-0.7
			c0.2-11.4-30.6-19.3-38.3-31.6c-7.7-12.3,3.1-15.4,8.1-12.5c5,2.9,15.2,9.9,20.1,10.8c6.7,1.3,15.9-5.3,1.6-20
			c-14.2-14.7-20.3-26.5-16.2-42.8c5.2-20.5,41.3-46.4,100.2-50.7c14.5-1.1,31.3-8,28.8-17.1c-2.8-10.1-16.8-5.4-30-5.6
			c-13.2-0.2-19-2.3-17.8-9.8c0.6-3.7,7.5-5.4,12.2-8.6c7.4-5,4.3-16.9-9.5-13.9c-17.5,3.8-24.9,9.7-31.6,2.8
			c-5.2-5.4-5.1-13.1,8.9-21.7c16.6-10.2,28.4-8.4,26.5-20.3C321.9,470.1,309.7,469.3,260.3,483.9"/>
		<linearGradient id="SVGID_14_" gradientUnits="userSpaceOnUse" x1="485.1028" y1="738.4576" x2="485.1028" y2="627.3969">
			<stop  offset="0" style="stop-color:#646DFF"/>
			<stop  offset="1" style="stop-color:#92A4FC"/>
		</linearGradient>
		<path fill="url(#SVGID_14_)" d="M358.2,694.9c2.5-50.1,33.4-68.4,63.5-67.5c55.9,1.6,61,46.4,113.9,43.4
			c28.3-1.6,58.1-15.3,76.4-0.6c0,0-45.5,58.1-150.3,68.1C436.4,740.8,358.2,694.9,358.2,694.9z"/>
		<linearGradient id="SVGID_15_" gradientUnits="userSpaceOnUse" x1="405.9328" y1="656.8423" x2="405.9328" y2="740.987">
			<stop  offset="0" style="stop-color:#F1F8FE"/>
			<stop  offset="1" style="stop-color:#8999FC"/>
		</linearGradient>
		<path fill="url(#SVGID_15_)" d="M356.5,733.1c-21.7-5.2-46.1-15.4-73.3-32c0,0,16.5-30.2,43-38.5c58.6-18.3,85.7,10.7,100.7,30.4
			c34.8,45.4,101.8,30.2,101.8,30.2C470.9,750.5,384.8,740,356.5,733.1"/>
		<linearGradient id="SVGID_16_" gradientUnits="userSpaceOnUse" x1="173.1963" y1="693.0068" x2="173.1963" y2="507.0383">
			<stop  offset="0" style="stop-color:#F1F8FE"/>
			<stop  offset="1" style="stop-color:#8999FC"/>
		</linearGradient>
		<path fill="url(#SVGID_16_)" d="M210.6,507c-37.1,20.9-105,90.3-59.6,186c0,0,18.9-0.1,27.6-4.3c22.9-11.1,31.9-37.6,13.5-70.2
			C152.8,548.9,210.6,507,210.6,507"/>
		<linearGradient id="SVGID_17_" gradientUnits="userSpaceOnUse" x1="209.738" y1="529.5619" x2="209.738" y2="587.1893">
			<stop  offset="0" style="stop-color:#F1F8FE"/>
			<stop  offset="1" style="stop-color:#B4C0FD"/>
		</linearGradient>
		<path fill="url(#SVGID_17_)" d="M225.3,532c-1.8-4.4-12.5-3.4-21.9,7.2c-8.2,9.2-13.3,24.5-6.6,38.4c5.4,11.2,18.4,12.1,22.1,5.2
			c6.5-12.3-3.9-14-5.2-24c-0.9-7,2.7-12.6,7.4-16.9S226.6,535.2,225.3,532"/>
		<path fill="#080627" d="M609.1,215.7c-4.1-2.4-8.1-6.7-10.1-10.6c2.1-0.1,3.9-0.2,5.3-0.1c5.1,0.4,6.4-0.3,4.6-1.5
			c-3.3-2.1-10.8-6.4-12.2-11.5c0.1,0,0.1,0,0.2,0c3.5,0.8,5,1.3,5,0.4c0-0.8-1.2-0.3-3.2-3.7c-1.7-2.7-4.4-6-5.9-9.5c1,0,1.7,0,2,0
			c1.3,0,2.6,0.2,2.6-0.3c0-0.6-2.4-1.4-4.2-4.5c-1.5-2.7-2.2-6.8-2.7-9c-0.5-2.1-0.6-3.4-1.1-3.5c-0.5-0.1-1,3.7-2.4,8.5
			c-1.5,4.8-3.2,5.9-4.9,7.2c-1,0.7-1.2,0.9,0.1,1.2c0.6,0.1,2,0.2,3.7,0.3c-1.3,3-2.9,5.4-4.6,7.3c-2.4,2.7-3.1,2.7-3.4,3.6
			c-0.4,1-0.6,1.2,2.7,1.1c0.4,0,1,0,1.6,0c-1.2,7.3-11.4,10.7-11.9,11.5c-1,1.6,4.6,3,10.2,3.4c-2.2,3.8-5.8,6.5-8.5,7.9
			c-3.2,1.6-0.1,3.1,9.8,5.1c6.6,1.3,18.8,0.1,24.9-0.9C610.5,217.6,610.5,216.6,609.1,215.7z"/>
		<path fill="#080627" d="M288.4,205.8c5.8-3.1,11.5-8.5,14.4-13.4c-2.9-0.2-5.6-0.3-7.6-0.1c-7.2,0.5-9.1-0.4-6.5-1.9
			c4.7-2.7,15.4-8.1,17.4-14.6c-0.1,0-0.2,0-0.3,0.1c-5,1-7.2,1.6-7.2,0.6c0-1,1.7-0.4,4.6-4.7c2.4-3.5,6.3-7.5,8.4-12
			c-1.4,0-2.5,0-2.9,0c-1.9,0-3.7,0.3-3.7-0.4c0-0.7,3.5-1.8,6-5.6c2.2-3.4,3.1-8.6,3.8-11.3c0.7-2.7,0.9-4.2,1.6-4.4
			c0.7-0.1,1.4,4.6,3.5,10.7c2.1,6.1,4.6,7.5,7,9c1.4,0.9,1.7,1.1-0.2,1.5c-0.9,0.2-2.9,0.3-5.2,0.4c1.9,3.8,4.1,6.8,6.6,9.3
			c3.5,3.4,4.4,3.4,4.9,4.6c0.5,1.3,0.9,1.5-3.9,1.4c-0.6,0-1.4,0-2.3,0c1.7,9.2,16.4,13.5,17.1,14.6c1.4,2-6.6,3.7-14.5,4.2
			c3.2,4.8,8.3,8.2,12.2,10c4.5,2.1,0.1,3.9-14,6.4c-9.4,1.7-26.9,0.2-35.6-1.2C286.4,208.2,286.3,206.9,288.4,205.8z"/>
	</g>
</g>
<g id="art">
</g>
<g id="wealth-manager">
</g>
<g id="completely-custom">
</g>
<g id="good-business">
</g>
<g id="climate-crusader">
</g>
<g id="for-humanity">
</g>
<g id="Swatches">
</g>
</svg>
