<?xml version="1.0" encoding="UTF-8"?>
<svg width="800px" height="800px" viewBox="0 0 800 800" version="1.1" xmlns="http://www.w3.org/2000/svg" xmlns:xlink="http://www.w3.org/1999/xlink">
    <!-- Generator: Sketch 50 (54983) - http://www.bohemiancoding.com/sketch -->
    <title>holistic</title>
    <desc>Created with Sketch.</desc>
    <defs>
        <linearGradient x1="99.9925706%" y1="49.969788%" x2="0.00509684292%" y2="49.969788%" id="linearGradient-1">
            <stop stop-color="#646DFF" offset="0%"></stop>
            <stop stop-color="#92A4FC" offset="100%"></stop>
        </linearGradient>
        <linearGradient x1="49.99045%" y1="99.9998399%" x2="49.99045%" y2="0.00942421247%" id="linearGradient-2">
            <stop stop-color="#281A92" offset="0%"></stop>
            <stop stop-color="#5E66F7" offset="100%"></stop>
        </linearGradient>
        <linearGradient x1="99.9076285%" y1="50.0755082%" x2="-0.0300165837%" y2="50.0755082%" id="linearGradient-3">
            <stop stop-color="#F1F8FE" offset="0%"></stop>
            <stop stop-color="#8999FC" offset="100%"></stop>
        </linearGradient>
        <linearGradient x1="100.024935%" y1="49.9677574%" x2="0.0618860932%" y2="49.9677574%" id="linearGradient-4">
            <stop stop-color="#F1F8FE" offset="0%"></stop>
            <stop stop-color="#8999FC" offset="100%"></stop>
        </linearGradient>
        <linearGradient x1="49.9762369%" y1="0.0414817395%" x2="49.9762369%" y2="100.003852%" id="linearGradient-5">
            <stop stop-color="#FFFFFF" offset="29.17%"></stop>
            <stop stop-color="#B4C0FD" offset="100%"></stop>
        </linearGradient>
        <linearGradient x1="50.0015879%" y1="100.050606%" x2="50.0015879%" y2="0.035007622%" id="linearGradient-6">
            <stop stop-color="#29A9DD" offset="56.54%"></stop>
            <stop stop-color="#81FCD0" offset="100%"></stop>
        </linearGradient>
        <linearGradient x1="50.031277%" y1="99.970136%" x2="50.031277%" y2="-0.015403588%" id="linearGradient-7">
            <stop stop-color="#281A92" offset="0%"></stop>
            <stop stop-color="#5E66F7" offset="100%"></stop>
        </linearGradient>
        <linearGradient x1="50.9552096%" y1="0.0810272858%" x2="49.6748646%" y2="100.302394%" id="linearGradient-8">
            <stop stop-color="#F1F8FE" offset="0%"></stop>
            <stop stop-color="#8999FC" offset="100%"></stop>
        </linearGradient>
        <linearGradient x1="50.0028636%" y1="100.01306%" x2="50.0028636%" y2="-0.0120120915%" id="linearGradient-9">
            <stop stop-color="#26A6DD" offset="0%"></stop>
            <stop stop-color="#81FCD0" offset="75.69%"></stop>
        </linearGradient>
        <linearGradient x1="55.2788965%" y1="0.254891878%" x2="44.9784672%" y2="100.144432%" id="linearGradient-10">
            <stop stop-color="#F1F8FE" offset="0%"></stop>
            <stop stop-color="#8999FC" offset="100%"></stop>
        </linearGradient>
        <linearGradient x1="0.0203540655%" y1="50.0960329%" x2="100.025241%" y2="50.0960329%" id="linearGradient-11">
            <stop stop-color="#F1F8FE" offset="0%"></stop>
            <stop stop-color="#B4C0FD" offset="100%"></stop>
        </linearGradient>
        <linearGradient x1="50.0179379%" y1="99.9635551%" x2="50.0179379%" y2="-0.0288053495%" id="linearGradient-12">
            <stop stop-color="#4D53E1" offset="0%"></stop>
            <stop stop-color="#808EFD" offset="100%"></stop>
        </linearGradient>
        <linearGradient x1="-0.0193208935%" y1="50.0080832%" x2="99.999394%" y2="50.0080118%" id="linearGradient-13">
            <stop stop-color="#8999FC" offset="0%"></stop>
            <stop stop-color="#7683FE" offset="3.300108%"></stop>
            <stop stop-color="#B7D0F9" offset="100%"></stop>
        </linearGradient>
        <linearGradient x1="50.0011032%" y1="100.053194%" x2="50.0011032%" y2="0.0255608784%" id="linearGradient-14">
            <stop stop-color="#646DFF" offset="0%"></stop>
            <stop stop-color="#92A4FC" offset="100%"></stop>
        </linearGradient>
        <linearGradient x1="49.9929939%" y1="0.0666732514%" x2="49.9929939%" y2="100.013085%" id="linearGradient-15">
            <stop stop-color="#F1F8FE" offset="0%"></stop>
            <stop stop-color="#8999FC" offset="100%"></stop>
        </linearGradient>
        <linearGradient x1="49.9322963%" y1="100.003656%" x2="49.9322963%" y2="0.0205913978%" id="linearGradient-16">
            <stop stop-color="#F1F8FE" offset="0%"></stop>
            <stop stop-color="#8999FC" offset="100%"></stop>
        </linearGradient>
        <linearGradient x1="49.8594076%" y1="0.0321629346%" x2="49.8594076%" y2="100.013093%" id="linearGradient-17">
            <stop stop-color="#F1F8FE" offset="0%"></stop>
            <stop stop-color="#B4C0FD" offset="100%"></stop>
        </linearGradient>
    </defs>
    <g id="holistic" stroke="none" stroke-width="1" fill="none" fill-rule="evenodd">
        <g id="Ethic_key_art_main" transform="translate(19.000000, 27.000000)" fill-rule="nonzero">
            <path d="M335.9,658.7 C334.4,699.4 292.3,704.7 275.7,699.2 C268.2,696.7 262.2,701.3 264.9,708.4 C266.4,712.3 271.2,713.2 271.4,717.4 C271.6,721.3 269.9,725.3 255.7,725.3 C247.3,725.3 241.6,737.6 259.2,742.4 C276.1,747 330.4,754.6 365.5,705.3 C391.7,668.4 335.9,658.7 335.9,658.7" id="Shape" fill="url(#linearGradient-1)"></path>
            <path d="M432.7,65.8 C450.4,62 500.9,77.1 521.6,89.3 C542.3,101.5 576.6,118.8 597.6,139.4 C634,175.2 676.8,239.8 680.8,254 C708.6,352.2 636.4,420 495.1,436.9 C375.3,451.2 242.9,340.3 253.8,304 C271.4,245 417.3,69.2 432.7,65.8 Z" id="Shape" fill="url(#linearGradient-2)"></path>
            <path d="M507.2,80 C486.6,67.8 466.9,53.4 463.3,49.4 C459.7,45.3 454.8,39.9 450.3,44.4 C445.8,48.9 433.7,54.8 427.5,58.8 C421.2,62.9 411.4,67.8 401.1,78.2 C401.1,78.2 408.3,90.6 416.4,103.1 C421,92 440.1,77.9 455.3,80.5 C475.6,84.1 481.1,104.2 521.7,89.2 C515.5,85.2 510.5,81.9 507.2,80" id="Shape" fill="url(#linearGradient-3)"></path>
            <path d="M188.7,125.8 C242.1,76.1 272.4,55.7 289.1,48.3 C359.7,17.2 392.9,60.4 392.9,77.6 C392.9,97 423.8,120.5 437.2,130.6 C461.4,148.7 465.3,178.9 442.6,189.5 C249.8,279.1 135.3,175.5 188.7,125.8 Z" id="Shape" fill="#646DFF"></path>
            <path d="M386.7,71.2 C391,76.4 395.8,67.4 399,66.5 C400,65.9 401.1,65.4 402.3,65 C404,63.9 405,62.6 405,62.6 C405,62.6 413.2,53.1 405.4,48.7 C396.3,42.1 385.2,32.1 380.1,26.4 C375.7,21.5 364.6,15.4 360.9,13.1 C357.2,10.9 353.5,2 347.6,0.5 C341.7,-1 329.1,13.8 320.9,23.5 C312.7,33.1 305.3,38.3 289,46.5 C279,51.5 263.9,61.7 241.2,80 C253.3,93.2 276.6,92.8 292.6,88.2 C316.4,81.4 322.2,63.7 341.7,57.3 C356.9,52.1 373.3,54.8 386.7,71.2" id="Shape" fill="url(#linearGradient-4)"></path>
            <path d="M277.2,333.2 C291,280.8 327.2,239.7 407.7,229 C459.8,222.1 482.6,200.5 489.5,188.8 C498.3,173.9 498.8,155.5 485.9,136.8 C471.8,116.3 436.7,102.8 421.8,97.6 C407,92.4 403.9,83.7 406.2,76.8 C408.3,70.4 425.4,60.1 425.4,60.1 C425.4,60.1 417.6,57.3 408,50.2 C408,50.2 402.9,53.7 390,64.3 C376.9,75 371.2,93.4 392.9,107.9 C410,119.3 430,131.6 428.5,156.1 C427,180.6 384.3,191.9 315.8,200.6 C222.8,212.3 220.2,248 223.2,269.3 C226.5,292.8 264.3,374.8 277.2,333.2 Z" id="Shape" fill="url(#linearGradient-5)"></path>
            <path d="M412.8,290.5 C408.8,288.4 402,283.4 397.6,277.8 C400.3,278.2 402.7,278.5 404.5,278.7 C411.4,279.4 413.2,278 410.7,275.8 C406.6,272.3 397.9,265.4 394.9,257.1 C400.2,257.2 403.7,257.9 403.5,257.4 C403.3,256.8 401.6,255.3 398.7,252.7 C395.8,250.1 390.9,242.9 389.7,239.6 C390.5,239.7 398.3,240.1 398.3,239.3 C398.1,237.6 390.5,234.3 387.6,228.4 C388.4,228.4 393.2,228.8 393.2,227.8 C393.2,226.8 389.5,225.2 386.9,219.9 C384.6,215.1 383.6,207.7 382.8,203.9 C382.1,200.1 381.8,197.9 381.1,197.7 C380.4,197.5 379.7,204.2 377.6,212.8 C375.5,221.4 372.9,223.4 370.3,225.6 C368.8,226.9 368.5,227.2 370.5,227.7 C371.5,228 373.8,228.1 376.5,228.2 C374.9,230.9 373,233 370.9,234.9 C367.6,237.8 366.7,237.8 366.1,238.9 C365.6,240 371.2,240.1 372.1,240 C370.5,245 364.7,251.2 359,254.7 C356.6,256.1 358.7,256 361.2,256.2 C362.1,256.3 365.8,256.4 370.5,256.6 C367.1,267.1 358.8,269.8 356.7,272.9 C355.1,275.3 361.8,274.6 370.4,275.3 C365.6,285.1 345,289.8 344.3,291 C342.6,294.1 380,296 391.8,296.1 C403,296.1 418.2,293.4 412.8,290.5 Z" id="Shape" fill="#080627"></path>
            <path d="M531.5,410 C509.1,381.7 490.4,396.2 431.5,377.5 C295,334.2 296.2,243.5 232.8,182.5 C203.3,154.1 182,143.3 154.6,151.5 C138.5,156.3 97.8,197.2 73.3,254 C34.3,344.3 59.4,463.7 130.2,511.7 C201,559.7 474.6,523.6 518.5,489.5 C539,473.7 593.5,488.1 531.5,410 Z" id="Shape" fill="url(#linearGradient-6)"></path>
            <path d="M248.1,317 C238.6,313.5 221.6,297.8 212.2,285.1 C225.4,283.6 233,279.9 232.5,278.2 C229.6,269.3 210.8,266.3 204.2,249.5 C213.4,249.3 220.4,249.1 222.4,249 C228.5,248.7 233.5,249 227.8,245.4 C214.5,237 201.2,222.5 196.8,210.3 C199.2,210.7 201.8,211.3 204.4,212 C216.1,215.1 216.6,213.1 214.2,211.3 C207.4,206.3 206.4,203.1 201,197.5 C193.8,190.1 192.3,185.1 189.7,176.8 C194.3,177.3 199.3,178 204.7,179.1 C209.6,180.1 209.2,177.1 205.3,173.6 C187.3,157.4 183.7,138.5 183.4,136.4 C181.8,124.6 176.6,100.8 174.9,101.2 C172.9,101.7 172.6,107.2 170.4,117 C169.2,122.5 166.2,146.7 158.4,158.1 C149.5,171 140.3,175.6 140.3,178.2 C140.2,180.8 146,179 152.8,178.1 C154.2,177.9 155.9,177.6 158,177.4 C154.3,186.9 148.8,194.5 141.8,203.5 C133.6,214.1 129.1,212.4 129,215 C128.9,217.6 131.9,216.7 145.5,214.6 C147.4,214.3 149.5,213.9 151.6,213.4 C147.1,221.5 136.9,233.4 130.6,239 C123.3,245.5 119.1,249 118.6,250.5 C118.1,252 129.3,249.8 145.1,250.3 C145.1,250.3 145.2,250.3 145.3,250.3 C137.5,264.6 118.3,276.2 109.2,282.2 C103.5,286 108.9,300.1 109.2,308.4 C109.9,335.8 146.2,318.5 176.3,318 C197.2,317.6 226.7,323.9 245.4,321.9 C252.2,320.8 250,317.7 248.1,317 Z" id="Shape" fill="#080627"></path>
            <path d="M355.6,113.5 C353,112.1 350.4,109.5 349.3,107.2 C350.6,107.1 356.4,106.9 355.4,106.2 C353.6,105 349.7,102.6 348.6,99.7 C348.9,99.7 354.1,100.1 354,99.8 C353.9,99.5 353.2,98.9 352,97.7 C351,96.7 349.4,94.7 348.6,93.2 C348.8,93.2 352.7,94 352.7,93.5 C352.7,93 351.9,93.3 350.5,91.4 C349.2,89.5 347.6,88.4 346.6,86.3 C347.2,86.3 349.6,86.5 349.6,86 C349.6,85.6 347.9,84.9 346.8,82.5 C345.8,80.4 345.3,77.2 345,75.5 C344.7,73.8 344.6,72.9 344.2,72.8 C343.9,72.7 343.5,75.6 342.6,79.4 C341.6,83.1 340.4,84 339.3,85 C338.6,85.5 338.5,85.7 339.4,85.9 C339.8,86 340.7,86.1 341.8,86.1 C340.9,87.7 339.9,89 338.8,90 C337.2,91.5 336.7,91.5 336.5,92.1 C336.2,92.7 339.7,92.7 340.7,92.7 C339.7,94.8 337.6,97 335.5,98.4 C334.5,99 335.4,99 336.4,99.1 C336.8,99.1 338.2,99.2 340,99.3 C338.8,103.3 333.5,105.2 333.3,105.6 C332.8,106.5 335.6,107.3 338.6,107.6 C337.3,109.9 335,111.5 333.2,112.4 C331.3,113.3 333.2,114.1 339.1,115.3 C343.1,116 350.5,115.4 354.2,114.8 C356.4,114.6 356.4,114 355.6,113.5 Z" id="Shape" fill="#080627"></path>
            <path d="M327.1,501.1 C235.9,535.9 187.1,551.7 205.1,574.6 C223.1,597.5 312.7,611.6 312.7,611.6 L431.5,546.8 L327.1,501.1 Z" id="Shape" fill="#080627"></path>
            <path d="M686.1,470.3 C682.6,493.6 664.7,573.1 603.2,618.2 C541.7,663.3 517.4,574.1 527.3,550.7 C537.2,527.4 577.9,510 577.9,510 L686.1,470.3 Z" id="Shape" fill="#080627"></path>
            <path d="M735.5,330.3 C735.2,394 718.1,428.4 681.3,465.5 C603,544.3 552.2,458.1 576.2,431.2 C601.4,403 622.5,404.2 636.6,337.8 C640.3,320.5 735.6,302.2 735.5,330.3 Z" id="Shape" fill="url(#linearGradient-7)"></path>
            <path d="M746.5,283.7 C746.5,283.7 757.4,268.2 757.2,256.2 C756.7,235.8 740.1,212.3 708,221.6 C708,221.6 700.2,210.5 681.8,208 C655,204.4 622.1,238.3 642.5,282.8 C642.5,282.8 664.3,284.3 674.8,300.6 C685.3,316.9 669.3,345 637.7,346.3 C632,346.5 583.5,351.4 565.5,352.6 L562.3,376.4 C607.7,355.1 636.7,381.3 672.4,395.4 C706.1,408.7 765.1,385.6 761.9,324 C760.7,300.7 746.5,283.7 746.5,283.7" id="Shape" fill="url(#linearGradient-8)"></path>
            <path d="M683.6,285.3 C683.6,285.3 693.1,255.6 653.9,241.7 C626.9,232.1 578.9,259.3 598.6,296 C606.1,310 632.7,311.8 629.4,290.5 C629.4,290.5 641.4,282.8 649.9,294.2 C657.8,304.7 656.6,326.3 629.3,325.8 C599.9,325.3 564.8,344.5 548.7,343.8 L571.5,353.2 C638.1,337.3 631.3,369.6 678.5,360.6 C701.9,356.1 693.9,334.3 693.9,334.3 C705.7,326.9 708.8,311.9 703.8,300.2 C698.8,288.4 683.6,285.3 683.6,285.3 Z" id="Shape" fill="#F8F8F8"></path>
            <path d="M651,418.8 C631.6,408.8 589.5,393.9 577.4,356.5 C588.8,356.4 600.3,355.7 613.1,352.4 C616.9,351.4 613.3,346.3 610.4,344.3 C604.6,340.4 601.7,339.3 586.2,329 C573.5,320.5 563.9,314.2 559.5,309.6 C579,309.4 585.3,309.5 585.6,307.2 C586,304.2 579.3,300.6 569.5,290.7 C562.5,283.7 557.2,276.3 552.9,267.7 C556.3,267.9 559.3,268.2 561.6,268.3 C576.2,269.4 575.1,268.6 573.7,264.6 C572.3,260.5 569.5,260.3 559.5,249.1 C553,241.8 547.8,234.5 543.4,225 C543.6,225 543.8,225 543.9,225 C548.8,225 553.7,225.9 553.7,223.6 C553.7,221.2 544.5,217.6 538,204.9 C532.2,193.6 529.8,176.2 528,167.2 C527.1,162.7 526.5,159.2 525.9,156.7 C524.7,152.9 524.1,151.2 522.7,151.2 C520.8,151.1 520.2,165.2 518.4,173.2 C517.4,177.7 516.2,182.8 514.7,188.2 C509.2,208.3 502.8,213.2 496.3,218.2 C492.6,221.1 491.8,222 496.7,223.2 C498.5,223.7 502,224 506.4,224.3 C496.5,241.5 471,258.5 470.8,261.3 C470.6,264.6 473.9,265.5 488.9,264.9 C490.6,264.8 492.5,264.8 494.7,264.8 C488.8,282.7 470.4,298.3 453.4,309.6 C445.5,314.8 452.3,314.5 460.7,315.2 C463.2,315.4 471,315 481.1,314.3 C479.8,316.1 478.5,318.1 476.9,320.3 C468,333.3 441.3,347.5 437.2,350.3 C432.9,353.3 436.9,356.1 440.2,356.4 C446.6,357 458.4,356.7 472.4,356.1 C462,388.2 440.7,405.8 387.3,423 C369.3,428.8 382.8,447.6 400.9,451.6 C434.3,459 536.8,460.7 586.8,453.5 C643.8,445.6 673.9,430.5 651,418.8 Z" id="Shape" fill="#080627"></path>
            <path d="M121.6,511.5 C72.5,465.6 56,445.4 56,445.4 C22,343.8 73.3,254.2 73.3,254.2 C128.3,262.9 158,297 175.6,360.4 C184.3,391.6 205.6,394.3 228.7,351.2 C239.9,330.3 264.1,330.9 273.1,355.6 C279.3,372.5 284.7,413.9 301.8,420.4 C322,428 323.5,403.1 339.5,396.8 C352.1,391.8 362.1,394.4 374.7,408.4 C391.7,427.3 384.9,441.5 414.7,464.5 C414.7,464.3 134.5,523.5 121.6,511.5 Z" id="Shape" fill="url(#linearGradient-9)"></path>
            <path d="M132.6,438.7 C164.2,430.7 160.6,403.3 151.9,389.5 C134.2,361.3 98.4,361.2 76.5,371.5 C54.5,381.8 45.1,395.5 45.1,395.5 C5.6,400.7 -3.1,440.6 1.9,461.4 C5.4,475.8 24.6,486.7 24.6,486.7 C16.2,528.3 46.4,556.9 72.5,563.1 C103.2,570.4 144.3,562.5 173,535.2 C227.9,483 198.6,478.4 183.2,481.7 C167.7,485 127.7,518.1 115,477.7 C107.8,455.1 132.6,438.7 132.6,438.7" id="Shape" fill="url(#linearGradient-10)"></path>
            <path d="M250.4,451.5 C250.4,451.5 214.3,444.4 180,465.4 C166.3,473.8 159.2,487.1 145.7,491 C127.7,496.1 118.1,479.3 119.8,467.2 C121.3,456.7 131.9,453.1 131.9,453.1 C140.2,466.2 156.4,453.9 157.8,446.7 C159.4,438.5 153.2,425.9 146.6,422 C136.6,416 119.1,411.6 105.9,417.4 C94.4,422.5 84,432.1 78.9,447.4 C75,459 81.4,472.4 81.4,472.4 C81.4,472.4 69.4,477.7 69.1,490.5 C68.9,498.2 75.3,513.7 90.2,516.5 C90.2,516.5 95.9,532.8 117.6,532.5 C150.8,532.2 172.4,501.8 184.3,494 C218.4,471.7 231.1,483.6 231.1,483.6 L250.4,451.5 Z" id="Shape" fill="#F8F8F8"></path>
            <path d="M225.9,472.2 C283.7,446.2 340.8,432.7 414.1,445.2 C495.1,459 539.3,439.9 556.3,431.5 C564.4,427.5 577.5,417.3 582.6,413.1 C592.1,405.1 598.5,410.4 599,417.2 C599.6,426.4 584.7,436.7 588,444.7 C592.6,455.9 612,440.4 623.7,433.4 C636.7,425.6 643.3,435.6 640.7,443.8 C638.1,452.1 616.1,476.2 625.2,483.3 C634.7,490.6 648.4,477.5 664.2,464.3 C680.5,450.6 689.4,427.7 702,434.1 C711.3,438.7 694.4,475.7 663.3,500.8 C592.3,558.1 490.6,554.6 383.5,538.4 C343.1,532.3 280.4,550.3 265.6,551 L225.9,472.2 Z" id="Shape" fill="#646DFF"></path>
            <path d="M417,496.9 C426.9,497.3 433.8,495.8 438.3,494.9 C442.6,494 448.4,490.9 445.7,487.3 C442.8,483.3 421.3,487.5 414.3,481 C408.3,475.5 414.5,471.2 420.5,470.6 C427.3,470 438.1,470.5 443,470.8 C470.2,472.6 474.9,474.6 496.5,473.1 C518.1,471.6 520.1,470.4 537.5,467.1 C552.9,464.2 557.2,456.2 563,461.5 C565.3,463.6 568.3,468.7 557,475.9 C549.7,480.6 554.3,488.8 558.1,489.3 C573.2,491.3 578.9,486.3 588.9,487 C600.1,487.8 605.1,502.4 586.6,506.8 C567.9,511.2 499.1,524.7 467.8,517.8 C440,511.7 395.7,518.9 391.6,507.7 C387.6,497 403.2,496.3 417,496.9" id="Shape" fill="url(#linearGradient-11)"></path>
            <path d="M584.2,584.2 C568.9,585.1 564.3,576 564.3,548.1 C564.3,520.2 545.9,494.8 518.4,489.7 C484,483.3 438.4,503.9 396,552.7 C340.7,616.3 257.5,606.1 222.1,582.4 C218.8,586 214.6,591.9 213.1,598.3 C210.1,611.1 207.6,624.1 216.4,635.5 C223.5,648.7 241.1,660.3 266.5,672.1 C300.3,687.7 479.7,700.4 507.6,692.3 C535.5,684.2 582.3,648.2 594,637.4 C605.7,626.6 625.4,598.7 625.4,598.7 C627.3,581.5 599.5,583.3 584.2,584.2" id="Shape" fill="url(#linearGradient-12)"></path>
            <path d="M239.3,452.9 C220.6,458.4 192.5,471.5 174.2,486.4 C95.1,551.1 113,630.3 135.2,671.1 C160.4,717.4 192.2,724.2 197.9,717.2 C202.3,711.7 194.6,705.2 192,696.2 C188.8,685.2 200.6,686.6 212.7,694.5 C225.6,703 240.1,703.1 240.3,693.8 C240.5,682.4 209.7,674.5 202,662.2 C194.3,649.9 205.1,646.8 210.1,649.7 C215.1,652.6 225.3,659.6 230.2,660.5 C236.9,661.8 246.1,655.2 231.8,640.5 C217.6,625.8 211.5,614 215.6,597.7 C220.8,577.2 256.9,551.3 315.8,547 C330.3,545.9 347.1,539 344.6,529.9 C341.8,519.8 327.8,524.5 314.6,524.3 C301.4,524.1 295.6,522 296.8,514.5 C297.4,510.8 304.3,509.1 309,505.9 C316.4,500.9 313.3,489 299.5,492 C282,495.8 274.6,501.7 267.9,494.8 C262.7,489.4 262.8,481.7 276.8,473.1 C293.4,462.9 305.2,464.7 303.3,452.8 C300.9,439.1 288.7,438.3 239.3,452.9" id="Shape" fill="url(#linearGradient-13)"></path>
            <path d="M337.2,663.9 C339.7,613.8 370.6,595.5 400.7,596.4 C456.6,598 461.7,642.8 514.6,639.8 C542.9,638.2 572.7,624.5 591,639.2 C591,639.2 545.5,697.3 440.7,707.3 C415.4,709.8 337.2,663.9 337.2,663.9 Z" id="Shape" fill="url(#linearGradient-14)"></path>
            <path d="M335.5,702.1 C313.8,696.9 289.4,686.7 262.2,670.1 C262.2,670.1 278.7,639.9 305.2,631.6 C363.8,613.3 390.9,642.3 405.9,662 C440.7,707.4 507.7,692.2 507.7,692.2 C449.9,719.5 363.8,709 335.5,702.1" id="Shape" fill="url(#linearGradient-15)"></path>
            <path d="M189.6,476 C152.5,496.9 84.6,566.3 130,662 C130,662 148.9,661.9 157.6,657.7 C180.5,646.6 189.5,620.1 171.1,587.5 C131.8,517.9 189.6,476 189.6,476" id="Shape" fill="url(#linearGradient-16)"></path>
            <path d="M204.3,501 C202.5,496.6 191.8,497.6 182.4,508.2 C174.2,517.4 169.1,532.7 175.8,546.6 C181.2,557.8 194.2,558.7 197.9,551.8 C204.4,539.5 194,537.8 192.7,527.8 C191.8,520.8 195.4,515.2 200.1,510.9 C204.8,506.6 205.6,504.2 204.3,501" id="Shape" fill="url(#linearGradient-17)"></path>
            <path d="M588.1,184.7 C584,182.3 580,178 578,174.1 C580.1,174 581.9,173.9 583.3,174 C588.4,174.4 589.7,173.7 587.9,172.5 C584.6,170.4 577.1,166.1 575.7,161 C575.8,161 575.8,161 575.9,161 C579.4,161.8 580.9,162.3 580.9,161.4 C580.9,160.6 579.7,161.1 577.7,157.7 C576,155 573.3,151.7 571.8,148.2 C572.8,148.2 573.5,148.2 573.8,148.2 C575.1,148.2 576.4,148.4 576.4,147.9 C576.4,147.3 574,146.5 572.2,143.4 C570.7,140.7 570,136.6 569.5,134.4 C569,132.3 568.9,131 568.4,130.9 C567.9,130.8 567.4,134.6 566,139.4 C564.5,144.2 562.8,145.3 561.1,146.6 C560.1,147.3 559.9,147.5 561.2,147.8 C561.8,147.9 563.2,148 564.9,148.1 C563.6,151.1 562,153.5 560.3,155.4 C557.9,158.1 557.2,158.1 556.9,159 C556.5,160 556.3,160.2 559.6,160.1 C560,160.1 560.6,160.1 561.2,160.1 C560,167.4 549.8,170.8 549.3,171.6 C548.3,173.2 553.9,174.6 559.5,175 C557.3,178.8 553.7,181.5 551,182.9 C547.8,184.5 550.9,186 560.8,188 C567.4,189.3 579.6,188.1 585.7,187.1 C589.5,186.6 589.5,185.6 588.1,184.7 Z" id="Shape" fill="#080627"></path>
            <path d="M267.4,174.8 C273.2,171.7 278.9,166.3 281.8,161.4 C278.9,161.2 276.2,161.1 274.2,161.3 C267,161.8 265.1,160.9 267.7,159.4 C272.4,156.7 283.1,151.3 285.1,144.8 C285,144.8 284.9,144.8 284.8,144.9 C279.8,145.9 277.6,146.5 277.6,145.5 C277.6,144.5 279.3,145.1 282.2,140.8 C284.6,137.3 288.5,133.3 290.6,128.8 C289.2,128.8 288.1,128.8 287.7,128.8 C285.8,128.8 284,129.1 284,128.4 C284,127.7 287.5,126.6 290,122.8 C292.2,119.4 293.1,114.2 293.8,111.5 C294.5,108.8 294.7,107.3 295.4,107.1 C296.1,107 296.8,111.7 298.9,117.8 C301,123.9 303.5,125.3 305.9,126.8 C307.3,127.7 307.6,127.9 305.7,128.3 C304.8,128.5 302.8,128.6 300.5,128.7 C302.4,132.5 304.6,135.5 307.1,138 C310.6,141.4 311.5,141.4 312,142.6 C312.5,143.9 312.9,144.1 308.1,144 C307.5,144 306.7,144 305.8,144 C307.5,153.2 322.2,157.5 322.9,158.6 C324.3,160.6 316.3,162.3 308.4,162.8 C311.6,167.6 316.7,171 320.6,172.8 C325.1,174.9 320.7,176.7 306.6,179.2 C297.2,180.9 279.7,179.4 271,178 C265.4,177.2 265.3,175.9 267.4,174.8 Z" id="Shape" fill="#080627"></path>
        </g>
    </g>
</svg>