<?xml version="1.0" encoding="UTF-8"?>
<svg width="115px" height="30px" viewBox="0 0 115 30" version="1.1" xmlns="http://www.w3.org/2000/svg" xmlns:xlink="http://www.w3.org/1999/xlink">
    <!-- Generator: Sketch 49 (51002) - http://www.bohemiancoding.com/sketch -->
    <title>Forbes</title>
    <desc>Created with Sketch.</desc>
    <defs>
        <polygon id="path-1" points="0.0389507666 0.0464971361 18.9624519 0.0464971361 18.9624519 22 0.0389507666 22"></polygon>
    </defs>
    <g id="Main" stroke="none" stroke-width="1" fill="none" fill-rule="evenodd">
        <g id="About-us" transform="translate(-402.000000, -651.000000)">
            <g id="Press" transform="translate(376.000000, 610.000000)">
                <g id="Forbes" transform="translate(26.000000, 41.000000)">
                    <path d="M65.6568767,18.8789544 C65.6524353,18.8789544 65.6479939,18.8789544 65.6435526,18.8789544 C65.6435526,19.2703664 65.6400301,19.6617784 65.6441652,20.0531382 C65.665351,22.0540656 65.6831675,24.0550453 65.7140528,26.0558683 C65.7239566,26.6985778 65.7714332,27.3407128 65.7993577,27.9832134 C65.8071683,28.1640619 65.8904822,28.2877262 66.0633891,28.3166055 C67.36721,28.5342713 68.5310515,28.2951418 69.4478101,27.2341255 C70.2180038,26.3427819 70.6888394,25.2904345 71.041596,24.1741139 C71.5094196,22.6940073 71.7537967,21.1749945 71.7847331,19.6194255 C71.8189367,17.9028528 71.7770756,16.1954713 71.2419679,14.5426629 C70.9045774,13.5004469 70.4647803,12.5180784 69.6557374,11.759277 C69.2106311,11.3419102 68.7027842,10.9991178 68.1026896,10.9137331 C67.358072,10.8077202 66.6135055,10.8878304 65.8900738,11.1326 C65.7106325,11.1933877 65.6537626,11.282167 65.65412,11.4663055 C65.658204,13.9371885 65.6568767,16.4080714 65.6568767,18.8789544 M65.6621348,0.00250323054 L65.6621348,9.56141636 C65.8147238,9.50407542 65.9366826,9.4725849 66.0456236,9.41513951 C67.6583491,8.5646866 69.3955348,8.38190581 71.1562546,8.54860189 C72.7287526,8.69759434 74.0688702,9.4533668 75.1946282,10.5832654 C76.554196,11.9478546 77.3509868,13.6311612 77.7418268,15.5136989 C78.0183144,16.8457531 78.0333231,18.2032399 77.9673663,19.5628679 C77.8967129,21.0179597 77.5973548,22.4237006 77.0536707,23.7611338 C75.7538827,26.9583354 73.3874017,28.8843227 70.1272367,29.6969661 C68.7007932,30.052553 67.2454044,30.0079023 65.7918022,29.984663 C63.8106478,29.9530158 61.8847297,29.5384168 59.954217,29.1447592 C59.7432777,29.1017796 59.7033055,29.0083003 59.7071342,28.8133515 C59.7430735,26.9865881 59.7850368,25.1597724 59.7991777,23.3326956 C59.827,19.7215738 59.8533929,16.1102432 59.8502278,12.499017 C59.8484921,10.4634135 59.7958084,8.42754878 59.7470555,6.39225856 C59.7285753,5.6210803 59.6803329,4.85298319 59.4189051,4.10885648 C59.1527295,3.35115177 58.6866927,2.87722729 57.8970489,2.75178744 C57.6884579,2.71862578 57.4856867,2.64849018 57.2791378,2.60096718 C57.0809611,2.55537643 56.9920317,2.4313466 57.0025991,2.22694546 C57.0039264,2.20093836 57.0021397,2.1747746 57.0016292,2.14866305 C56.9898876,1.5474187 57.0317488,1.64491919 57.4587322,1.55927334 C59.3549903,1.17882818 61.2523203,0.804336449 63.1504672,0.434335905 C63.9330661,0.281792279 64.718779,0.145646701 65.5033178,0.00344324603 C65.5428817,-0.00371131635 65.5847939,0.00250323054 65.6621348,0.00250323054" id="Fill-1" fill="#000000"></path>
                    <path d="M0.0608120065,2.36948999 C0.0393009784,1.95896578 0.0123227769,1.57836148 0.00787750508,1.19749611 C0.00731545922,1.14684634 0.118549445,1.05473686 0.182827054,1.04993297 C0.564405102,1.02163176 0.947464906,1.00032752 1.33001376,1.00027531 C7.13691835,0.99938763 12.9438229,1.00053639 18.7507275,1.00534028 C19.9850824,1.00638461 21.2194374,1.02366819 22.4537923,1.03358928 C22.8168228,1.03651339 22.826582,1.03771436 22.8445163,1.40510794 C22.8700128,1.9262784 22.8891223,2.44797102 22.8982173,2.96971586 C22.9334729,4.97904963 22.9610131,6.98854005 22.9997943,8.99776939 C23.0036775,9.19749657 22.9537065,9.29848281 22.7542824,9.34124792 C22.5141356,9.39273315 22.2822661,9.48301506 22.0442652,9.54635338 C21.6966654,9.6389328 21.5926358,9.58984952 21.4471681,9.24840742 C21.1283348,8.50040954 20.8354578,7.74019306 20.4970551,7.00164633 C20.1601853,6.26649365 19.7233735,5.59008426 19.1761963,4.99654208 C18.1446377,3.87739105 16.8737498,3.29089805 15.3687954,3.27142139 C13.8618993,3.25194472 12.3547478,3.26092592 10.8477495,3.24902061 C10.6769387,3.24766299 10.6224713,3.32243667 10.6108727,3.47172295 C10.5886975,3.75755474 10.5565587,4.04291658 10.5457265,4.3291661 C10.5081205,5.31986514 10.4612664,6.31066861 10.4482882,7.30183759 C10.4172224,9.67673737 10.4035289,12.0518982 10.3823756,14.4269547 C10.3810982,14.5685129 10.360558,14.7188435 10.5743909,14.7085569 C11.6532124,14.6567584 12.7357638,14.6457408 13.8098334,14.5425615 C14.6326175,14.4636105 15.2198532,13.9390982 15.6557453,13.2390348 C16.0589366,12.591501 16.257441,11.8643374 16.4399526,11.1305946 C16.565391,10.6264466 16.45896,10.725292 16.9568815,10.6721881 C17.1509917,10.6514582 17.3490362,10.6708305 17.5435552,10.6523459 C17.7413443,10.6336003 17.8346439,10.7002804 17.806746,10.9103464 C17.8033737,10.9359846 17.8064905,10.9624583 17.8064905,10.9885664 C17.8064394,14.0427997 17.8065416,17.0969807 17.8060817,20.151214 C17.8060306,20.5072767 17.8046511,20.5064934 17.4565403,20.4998098 C17.2267146,20.4953714 16.996378,20.4835705 16.7670633,20.4940137 C16.5978875,20.5016895 16.5345807,20.4313542 16.4896681,20.2688572 C16.3306091,19.6937996 16.168229,19.1186898 15.9750385,18.5550675 C15.8863374,18.2961793 15.735096,18.0564022 15.591621,17.8210114 C15.1286996,17.0615259 14.4664563,16.6303763 13.5811319,16.5821284 C12.6045005,16.5289201 11.6276137,16.479889 10.6514933,16.4192659 C10.4368429,16.4059508 10.3752733,16.4802023 10.37885,16.6963776 C10.4058282,18.3401976 10.3904997,19.9855318 10.4525802,21.6278898 C10.5011716,22.9109476 10.6220115,24.192439 10.752355,25.4701186 C10.7983917,25.9214237 10.9413557,26.3687081 11.0860059,26.8017898 C11.4049925,27.7568251 12.0470021,28.3294286 13.0485168,28.4634155 C13.5105696,28.5252395 13.9661333,28.6368257 14.4268065,28.7118604 C14.6358876,28.7460099 14.7205521,28.8655329 14.7266324,29.063798 C14.7325084,29.2547529 14.7418588,29.4464387 14.7321507,29.6368192 C14.7163112,29.9486025 14.6727271,29.9896967 14.3584413,29.9908976 C12.9791296,29.9961715 11.5997669,30.0002966 10.2204042,29.9999833 C7.03595448,29.9994089 3.8515048,29.9967459 0.667055115,29.9929863 C0.00859283618,29.9922553 0.00859283618,29.9884957 0.0004176236,29.316368 C-0.00535612029,28.8403124 0.0430820143,28.7713347 0.505543571,28.6587565 C0.794128575,28.5885256 1.08399096,28.5160495 1.37742999,28.475373 C2.61234695,28.3041037 3.30402103,27.5267603 3.55842342,26.345002 C3.7383292,25.5095941 3.86274571,24.6525164 3.91424955,23.7989373 C4.16987823,19.5668097 4.07627205,15.3284161 4.06651289,11.0922157 C4.0632939,9.67574526 3.99227174,8.25828276 3.91210356,6.84363994 C3.86453404,6.00462913 3.74594236,5.17115324 3.47161289,4.36681402 C3.09509325,3.26275349 2.32922912,2.67960234 1.21612283,2.53036827 C0.837712677,2.47961407 0.459813476,2.42515252 0.0608120065,2.36948999" id="Fill-3" fill="#000000"></path>
                    <path d="M27.266271,18.7888869 C27.2792962,18.7894652 27.29227,18.7899909 27.3052952,18.7905691 C27.3052952,19.0182957 27.3076634,19.2460222 27.3048833,19.4736962 C27.2842901,21.1861662 27.4305021,22.8790807 27.8742349,24.536827 C28.1488458,25.5629632 28.4971805,26.5566122 29.1567305,27.4022809 C30.2599618,28.8169506 31.9602942,28.8398179 33.1053813,27.4652054 C33.7116978,26.7373425 34.0100938,25.8655998 34.2313682,24.9621058 C34.637261,23.3049904 34.7268416,21.6088166 34.7344096,19.91238 C34.7399183,18.6716067 34.6711883,17.4288884 34.5948389,16.1896397 C34.5232259,15.0271934 34.306791,13.8866682 33.9300891,12.7829409 C33.5867483,11.7768332 33.1014686,10.8618793 32.2851011,10.1655575 C31.4277015,9.4341726 30.1978732,9.42386918 29.3258525,10.1403247 C28.8809355,10.5058331 28.5805316,10.9835227 28.3449449,11.5040555 C27.7848603,12.7419375 27.5400067,14.0652958 27.4228826,15.4077365 C27.3249103,16.5305987 27.3151285,17.6615038 27.266271,18.7888869 M31.2376774,8 C33.0005617,8.04463062 34.6861699,8.37744151 36.2405477,9.24287599 C38.303527,10.3915493 39.5928698,12.1910201 40.3331453,14.4319608 C40.9361154,16.2571376 41.0723397,18.1319389 40.9681379,20.04869 C40.8712467,21.8302875 40.4386857,23.5001245 39.58767,25.0491591 C38.1293597,27.7033405 35.8939635,29.2716678 32.9855801,29.8444536 C31.9373327,30.0508374 30.8709633,30.0033681 29.8067046,29.9715116 C28.6856086,29.9379204 27.6161502,29.6928462 26.5950343,29.2391805 C23.983657,28.0790998 22.3816059,26.0238309 21.571056,23.2764457 C21.1141949,21.7278316 20.9483164,20.1404745 21.0136999,18.53209 C21.0949917,16.5333322 21.4887345,14.6115872 22.5247289,12.8753563 C24.0673171,10.2901973 26.2825319,8.70383905 29.2228862,8.22120806 C29.8888716,8.11186567 30.5657714,8.07186108 31.2376774,8" id="Fill-5" fill="#000000"></path>
                    <g id="Group-9" transform="translate(80.000000, 8.000000)">
                        <mask id="mask-2" fill="white">
                            <use xlink:href="#path-1"></use>
                        </mask>
                        <g id="Clip-8"></g>
                        <path d="M8.26948701,8.46784726 C8.26970169,8.45970883 8.26986271,8.45157041 8.2700774,8.44348449 C9.63721864,8.40168974 11.0043599,8.35627208 12.3717695,8.32209069 C12.5712158,8.31705012 12.6190915,8.23571838 12.6005746,8.06591408 C12.4738006,6.903642 12.3854023,5.73590931 12.2100011,4.58077804 C12.0893458,3.7857327 11.8207158,3.01772792 11.3141028,2.35904057 C10.6992328,1.55963723 9.78685706,1.40064916 8.9211226,1.93521241 C8.47252938,2.21218138 8.12897288,2.59242959 7.86275819,3.03311217 C6.89891073,4.62871599 6.55793051,6.39491169 6.40217345,8.21062053 C6.38317345,8.4312506 6.48869322,8.47477804 6.68738814,8.47110263 C7.2146113,8.46144153 7.74210282,8.46784726 8.26948701,8.46784726 Z M12.6559644,10.1793317 C10.679535,10.1793317 8.70310565,10.1791742 6.72672994,10.1794893 C6.35687401,10.1795418 6.37791356,10.1801718 6.38285141,10.5460334 C6.39755763,11.633957 6.52798136,12.7032411 6.8270435,13.7538854 C7.39022712,15.7326778 8.55250113,17.2514129 10.4293147,18.1980955 C11.5567017,18.7667351 12.7871395,18.8355704 14.0322299,18.7893126 C15.3273429,18.7411647 16.4973994,18.3443771 17.5644051,17.6362816 C17.5865181,17.6216325 17.6108853,17.6102387 17.6341254,17.5971122 C18.1125068,17.3269165 18.4775322,17.4713079 18.6052723,18.0115943 C18.6335576,18.1310979 18.567326,18.3173365 18.4772638,18.4105871 C18.0120859,18.8922768 17.5526508,19.3852554 17.0401339,19.8161718 C15.6972525,20.9452076 14.1050633,21.6042625 12.3764927,21.8485203 C9.50448701,22.2542864 6.76065085,21.8917327 4.32886554,20.1884391 C2.31948136,18.7810167 1.09457175,16.8492697 0.417871186,14.5514511 C0.0439898305,13.2820143 0.0364757062,11.9824916 0.0392666667,10.6798711 C0.044419209,8.22952267 0.753323164,5.98778043 2.20982881,3.99969451 C3.68571017,1.98519809 5.71328927,0.769894988 8.19268192,0.284109785 C9.97202655,-0.0645298329 11.7494927,-0.062797136 13.4803712,0.513665871 C15.6626339,1.24050597 17.1076,2.74464439 17.9943203,4.79300716 C18.4638994,5.87783294 18.7346226,7.01427208 18.8518429,8.18410501 C18.9066424,8.73090215 18.9170548,9.28179475 18.9601,9.82995704 C18.9793147,10.0750549 18.8815774,10.1437327 18.6380661,10.1427876 C16.6440322,10.1350167 14.6499983,10.1383771 12.6559644,10.1383771 L12.6559644,10.1793317 Z" id="Fill-7" fill="#000000" mask="url(#mask-2)"></path>
                    </g>
                    <path d="M106.431184,29.9750451 C104.669618,30.1102343 102.824217,29.6771859 100.994804,29.1341085 C100.73246,29.056202 100.406066,29.0019786 100.24909,28.8095596 C100.109349,28.6383973 100.143073,28.2915367 100.135329,28.0210529 C100.096859,26.6685811 100.07053,25.3157929 100.038555,23.9631102 C100.029362,23.5766897 100.021518,23.1900054 100.000835,22.8041652 C99.9922415,22.6443962 100.049696,22.5558349 100.187138,22.5105257 C100.218714,22.5001346 100.247641,22.4812514 100.278866,22.4695417 C100.891535,22.2397254 101.016487,22.2946872 101.255999,22.917781 C101.701699,24.0772007 102.2095,25.2002254 102.978896,26.1669624 C103.626687,26.9808929 104.402527,27.6120041 105.412234,27.8054254 C106.515368,28.0167804 107.585777,27.9966313 108.543525,27.2079136 C109.713556,26.2443414 110.072874,23.7462695 108.49811,22.6001419 C107.668662,21.996406 106.756528,21.5818717 105.838899,21.1680757 C104.960839,20.7722136 104.057398,20.4216607 103.223104,19.9393472 C101.707644,19.0632286 100.719121,17.7376048 100.457476,15.885255 C100.024866,12.8230598 101.457241,10.0808773 104.15692,8.80356923 C105.052317,8.37990974 105.994327,8.14466057 106.969761,8.05973878 C109.082202,7.87570641 111.154624,8.11417312 113.166194,8.81264162 C114.031614,9.11313815 113.867493,8.89408214 113.903015,9.8754826 C113.957123,11.3679434 113.970712,12.8619866 114.013179,14.3549749 C114.019274,14.5707607 113.949229,14.6630142 113.763874,14.7327978 C113.072018,14.9933652 113.032399,14.982394 112.766558,14.2514337 C112.398947,13.2410754 111.998161,12.2498113 111.360462,11.3873014 C110.595863,10.3531017 109.589753,9.78892568 108.356472,9.68105918 C107.044552,9.56633565 105.822562,10.6282799 105.668983,12.0229489 C105.628914,12.3865301 105.60923,12.7612937 105.645201,13.1237145 C105.72279,13.9068411 106.201564,14.4389473 106.75488,14.8972612 C107.600366,15.5976813 108.576499,16.0524085 109.553132,16.4998039 C110.689639,17.0204113 111.836888,17.5159642 112.857836,18.2762516 C113.898569,19.0512552 114.6221,20.0641453 114.872604,21.3950965 C114.972125,21.9238269 114.985965,22.4749218 114.998105,23.0168388 C115.025983,24.2639232 114.746653,25.4319933 114.134084,26.507177 C113.301088,27.9690976 112.060912,28.8772333 110.568534,29.4435192 C109.622527,29.8025115 108.65199,30.0143412 107.639635,29.9771023 C107.290409,29.9642321 106.940384,29.9750451 106.431184,29.9750451" id="Fill-10" fill="#000000"></path>
                    <path d="M49.8832498,12.2875393 C49.9655643,12.1418435 50.0479825,11.9961477 50.1300892,11.8503492 C50.7337111,10.7786246 51.4535079,9.80408188 52.4744664,9.07657955 C53.5586279,8.30405801 54.7564716,7.91060238 56.098794,8.01718897 C56.6579608,8.06159149 57.2169718,8.13441367 57.7222837,8.40648186 C58.0076577,8.56014335 58.0552806,8.65419034 57.9458051,8.94383453 C57.3110751,10.6238839 56.6689188,12.3012095 56.0277491,13.9789462 C56.0008476,14.0493016 55.9592489,14.114158 55.9080426,14.2136012 C55.6532574,14.1076827 55.4057429,14.0144579 55.1666415,13.9035544 C54.4264349,13.5601544 53.6642604,13.2947672 52.8392985,13.2542704 C51.9391889,13.2100735 51.0865465,13.3826985 50.3034948,13.8368993 C50.0237816,13.9991946 49.8257076,14.2111343 49.8194237,14.5693866 C49.7961575,15.9042372 49.7282806,17.2389337 49.7325911,18.5735273 C49.7380441,20.276703 49.7748129,21.9805982 49.8431572,23.6824376 C49.8759272,24.4994131 49.9557488,25.3233778 50.1158076,26.124319 C50.3183478,27.1379195 50.8215823,27.5056792 51.9531071,27.6403771 C52.3129536,27.6832379 52.6734232,27.7230666 53.034568,27.7525654 C53.2300973,27.7684969 53.3312116,27.8331478 53.3127233,28.0502781 C53.2931444,28.2799995 53.2917941,28.5132669 53.3078416,28.7432452 C53.3228503,28.9580115 53.2295779,28.999125 53.0343084,28.9986624 C51.2690405,28.9943969 49.5037206,29.0001014 47.7384527,28.9999986 C45.8260055,28.9999472 43.9136103,28.9980457 42.0012151,28.9934205 C41.7419636,28.9928552 41.4813618,28.983656 41.2244473,28.9531293 C41.1491958,28.9441871 41.0278794,28.8510138 41.0246076,28.7911937 C41.0080928,28.4939436 41.0170253,28.1945349 41.036033,27.8970792 C41.0387854,27.8535503 41.138186,27.7949123 41.2017005,27.7799059 C41.4782458,27.7146897 41.7589977,27.6669981 42.0365817,27.6055849 C42.9469221,27.4043346 43.4870294,26.8757699 43.6158242,25.9627432 C43.7230147,25.2025043 43.8035634,24.4327065 43.8144175,23.6659923 C43.8518095,21.0292845 43.8782436,18.3918573 43.8567432,15.7550982 C43.8480184,14.6815235 43.7193794,13.6077946 43.6146297,12.5370464 C43.5888708,12.273869 43.4665157,12.0107944 43.3469131,11.7677112 C43.1188736,11.3042599 42.7176362,11.0573737 42.211026,10.9640462 C41.8805738,10.9031983 41.5517316,10.833768 41.2227854,10.7653655 C41.1653991,10.7534426 41.0661024,10.7337082 41.0622593,10.7068816 C41.0291258,10.475156 40.9805162,10.2371092 41.0081967,10.0094949 C41.0197259,9.91513956 41.1945337,9.79287847 41.3139286,9.76625752 C42.2895493,9.54902437 43.2679224,9.34304604 44.2487365,9.14971008 C45.9909979,8.80625868 47.7355444,8.47406208 49.4791042,8.1373944 C49.5214299,8.1292231 49.5639114,8.1210518 49.6066526,8.11647793 C49.9331578,8.08178847 49.9459334,8.09083342 49.936118,8.41696579 C49.8991414,9.64887864 49.8598279,10.8806887 49.8216568,12.1126016 C49.8200988,12.1626572 49.8214491,12.212867 49.8214491,12.2630254 C49.8420666,12.2711967 49.8626842,12.279368 49.8832498,12.2875393" id="Fill-12" fill="#000000"></path>
                </g>
            </g>
        </g>
    </g>
</svg>