<?xml version="1.0" encoding="utf-8"?>
<!-- Generator: Adobe Illustrator 22.0.1, SVG Export Plug-In . SVG Version: 6.00 Build 0)  -->
<svg version="1.1" xmlns="http://www.w3.org/2000/svg" xmlns:xlink="http://www.w3.org/1999/xlink" x="0px" y="0px"
	 viewBox="0 0 800 800" enable-background="new 0 0 800 800" xml:space="preserve">
<g id="holistic-holdings">
</g>
<g id="art">
</g>
<g id="wealth-manager">
</g>
<g id="completely-custom">
	<linearGradient id="SVGID_1_" gradientUnits="userSpaceOnUse" x1="582.5596" y1="134.508" x2="582.5596" y2="665.326">
		<stop  offset="0.1584" style="stop-color:#646DFF"/>
		<stop  offset="0.4486" style="stop-color:#92A4FC"/>
	</linearGradient>
	<path fill="url(#SVGID_1_)" d="M708.3,635.2c55.5-73.5,74.2-190.8,41.3-301C716.5,222.9,660,163,600.9,140.6
		s-175.6,21.5-201.6,61.8c0,0,88.7,34.1,116.5,147c31.2,126.8-23.3,217.8-106.6,265.2C409.1,614.6,649.2,713.5,708.3,635.2z"/>
	<g>
		<defs>
			<path id="SVGID_59_" d="M708.3,635.2c55.5-73.5,74.2-190.8,41.3-301C716.5,222.9,660,163,600.9,140.6s-175.6,21.5-201.6,61.8
				c0,0,88.7,34.1,116.5,147c31.2,126.8-23.3,217.8-106.6,265.2C409.1,614.6,649.2,713.5,708.3,635.2z"/>
		</defs>
		<linearGradient id="SVGID_2_" gradientUnits="userSpaceOnUse" x1="399.2685" y1="399.917" x2="765.8507" y2="399.917">
			<stop  offset="0" style="stop-color:#F1F8FE"/>
			<stop  offset="1" style="stop-color:#8999FC"/>
		</linearGradient>
		<use xlink:href="#SVGID_59_"  overflow="visible" fill="url(#SVGID_2_)"/>
		<clipPath id="SVGID_3_">
			<use xlink:href="#SVGID_59_"  overflow="visible"/>
		</clipPath>
		<linearGradient id="SVGID_4_" gradientUnits="userSpaceOnUse" x1="533.4951" y1="330.7173" x2="533.4951" y2="159.6426">
			<stop  offset="0" style="stop-color:#F1F8FE"/>
			<stop  offset="1" style="stop-color:#8999FC"/>
		</linearGradient>
		<path clip-path="url(#SVGID_3_)" fill="url(#SVGID_4_)" d="M666.3,167.2c0,0-14.5-9.2-34.9-7.3c-13.5,1.3-20.9,8.7-41.2,9.1
			c-11,0.2-25.6-8.7-39-8.8c-21-0.2-28.2,8.6-41.6,8.8c-21.3,0.4-30.9-8.5-48.1-8.8c-18.1-0.3-28.7,10.8-40.9,11.4
			c-9.5,0.5-17.4-2.7-21.9-6.9c-3.8-3.6-6.4-4.2-9.2-2.8c-2.6,1.4-3.2,7-3,11c1.5,30.9-0.7,84.8,52.1,122.5
			c73.4,52.5,197.5,43.3,228.4-7.8S666.3,167.2,666.3,167.2z"/>
		<linearGradient id="SVGID_5_" gradientUnits="userSpaceOnUse" x1="554.9628" y1="380.817" x2="554.9628" y2="213.8059">
			<stop  offset="0" style="stop-color:#F1F8FE"/>
			<stop  offset="1" style="stop-color:#8999FC"/>
		</linearGradient>
		<path clip-path="url(#SVGID_3_)" fill="url(#SVGID_5_)" d="M397.6,226.3c0,0,17.7-14.2,38.4-12.3c13.8,1.3,18.2,10.7,38.9,11.1
			c11.2,0.2,26-8.7,39.7-8.8c21.4-0.2,28.7,8.6,42.3,8.8c21.6,0.4,31.4-8.5,48.9-8.8c18.4-0.3,29.2,10.8,41.5,11.4
			c9.6,0.5,17.7-2.7,22.2-6.9c3.8-3.6,6.5-4.2,9.3-2.8c2.6,1.4,10.4,8.7,13.2,11.5c29.9,30.3,64.4,72.8-10.3,115.8
			c-79.1,45.5-253.5,49.6-284.9-1.5S397.6,226.3,397.6,226.3z"/>
		<linearGradient id="SVGID_6_" gradientUnits="userSpaceOnUse" x1="611.497" y1="449.2599" x2="611.497" y2="278.1852">
			<stop  offset="0" style="stop-color:#F1F8FE"/>
			<stop  offset="1" style="stop-color:#8999FC"/>
		</linearGradient>
		<path clip-path="url(#SVGID_3_)" fill="url(#SVGID_6_)" d="M744.3,285.7c0,0-14.5-9.2-34.9-7.3c-13.5,1.3-20.9,8.7-41.2,9.1
			c-11,0.2-25.6-8.7-39-8.8c-21-0.2-28.2,8.6-41.6,8.8c-21.3,0.4-30.9-8.5-48.1-8.8c-18.1-0.3-28.7,10.8-40.9,11.4
			c-9.5,0.5-17.4-2.7-21.9-6.9c-3.8-3.6-6.4-4.2-9.2-2.8c-2.6,1.4-3.2,7-3,11c1.5,30.9-0.7,84.8,52.1,122.5
			c73.4,52.5,197.5,43.3,228.4-7.8C775.9,355.2,744.3,285.7,744.3,285.7z"/>
		<linearGradient id="SVGID_7_" gradientUnits="userSpaceOnUse" x1="634.0724" y1="495.7721" x2="634.0724" y2="324.6974">
			<stop  offset="0" style="stop-color:#F1F8FE"/>
			<stop  offset="1" style="stop-color:#8999FC"/>
		</linearGradient>
		<path clip-path="url(#SVGID_3_)" fill="url(#SVGID_7_)" d="M766.9,332.3c0,0-14.5-9.2-34.9-7.3c-13.5,1.3-20.9,8.7-41.2,9.1
			c-11,0.2-25.6-8.7-39-8.8c-21-0.2-28.2,8.6-41.6,8.8c-21.3,0.4-30.9-8.5-48.1-8.8c-18.1-0.3-28.7,10.8-40.9,11.4
			c-9.5,0.5-17.4-2.7-21.9-6.9c-3.8-3.6-6.4-4.2-9.2-2.8c-2.6,1.4-3.2,7-3,11c1.5,30.9-0.7,84.8,52.1,122.5
			c73.4,52.5,197.5,43.3,228.4-7.8S766.9,332.3,766.9,332.3z"/>
		<linearGradient id="SVGID_8_" gradientUnits="userSpaceOnUse" x1="641.0408" y1="566.945" x2="641.0408" y2="387.5528">
			<stop  offset="0" style="stop-color:#F1F8FE"/>
			<stop  offset="1" style="stop-color:#8999FC"/>
		</linearGradient>
		<path clip-path="url(#SVGID_3_)" fill="url(#SVGID_8_)" d="M504.4,403.8c0,0,14.4-9.9,35.3-8.7c13.8,0.8,21.6,8.1,42.3,7.7
			c11.2-0.2,25.8-9.8,39.4-10.5c21.4-1,29.1,7.8,42.7,7.5c21.7-0.4,31.2-9.9,48.7-10.8c18.4-1,29.6,9.9,42.1,10.2
			c9.7,0.2,17.7-3.4,22-7.8c3.7-3.8,6.3-4.6,9.3-3.2c2.7,1.3,3.5,7,3.5,11.1c-0.4,31.6,3.8,86.6-48.5,127.1
			c-72.9,56.3-199.6,51.6-232.9,0.5S504.4,403.8,504.4,403.8z"/>
		
			<linearGradient id="SVGID_9_" gradientUnits="userSpaceOnUse" x1="631.7676" y1="611.7206" x2="631.7676" y2="449.3063" gradientTransform="matrix(-1 0 0 1 1279.1028 0)">
			<stop  offset="0" style="stop-color:#F1F8FE"/>
			<stop  offset="1" style="stop-color:#8999FC"/>
		</linearGradient>
		<path clip-path="url(#SVGID_3_)" fill="url(#SVGID_9_)" d="M513.5,457.4c0,0,13.5-9.2,32.5-7.3c12.6,1.3,19.5,8.7,38.4,9.1
			c10.3,0.2,23.9-8.7,36.4-8.9c19.6-0.2,26.3,8.6,38.8,8.9c19.9,0.4,28.8-8.6,44.9-8.9c16.9-0.3,24,10.9,35.4,11.2
			c12.4,0.3,23.1-5,27.6-8.8c7.2-6.1,9.3-2.7,11.9-1.2c2.4,1.4,3,7,2.8,11c-1.4,31,52.6,86.6-56.4,123.3
			c-81.8,27.6-184.2,43.4-213-7.8C484.1,527,513.5,457.4,513.5,457.4z"/>
	</g>
	<g opacity="0.3">
		<defs>
			<path id="SVGID_68_" opacity="0.3" d="M72.5,531.4c0,0,90.3,222.3,307.7,236c181.2,11.4,269-53.9,328.1-132.2
				c55.5-73.5,74.2-190.8,41.3-301C716.5,222.9,660,163,600.9,140.6s-175.6,21.5-201.6,61.8c0,0,88.7,34.1,116.5,147
				c31.2,126.8-23.3,217.8-106.6,265.2C376,633.5,72.5,531.4,72.5,531.4z"/>
		</defs>
		<clipPath id="SVGID_10_">
			<use xlink:href="#SVGID_68_"  overflow="visible"/>
		</clipPath>
	</g>
	<linearGradient id="SVGID_11_" gradientUnits="userSpaceOnUse" x1="406.0511" y1="334.1331" x2="406.0511" y2="47.4942">
		<stop  offset="0.1634" style="stop-color:#F1F8FE"/>
		<stop  offset="0.9303" style="stop-color:#8999FC"/>
	</linearGradient>
	<path fill="url(#SVGID_11_)" d="M315.1,267.4c118.8-109.8,225-99.3,282.1-79.8c89.6,30.6,135.5,94.6,152.5,146.6
		c0,0-28.8-199.7-231.3-267c-196.9-65.3-375.6,43-437.5,163.6c-16,31.2-18.3,44-18.3,44C125,316.4,258.9,319.3,315.1,267.4z"/>
	<g>
		<linearGradient id="SVGID_12_" gradientUnits="userSpaceOnUse" x1="257.9243" y1="300.9184" x2="315.1192" y2="300.9184">
			<stop  offset="0" style="stop-color:#281A92"/>
			<stop  offset="1" style="stop-color:#5E66F7"/>
		</linearGradient>
		<path fill="url(#SVGID_12_)" d="M258.1,311.6c-2,1.4,16.1,1.9,44.7,1.9c3.6-8.8,7.8-17.2,12.4-25.1c-11.5,2.7-25.8,7-38.1,13
			C269.2,305.1,263.3,307.9,258.1,311.6z"/>
		<linearGradient id="SVGID_13_" gradientUnits="userSpaceOnUse" x1="363.5189" y1="176.8058" x2="478.1253" y2="176.8058">
			<stop  offset="0" style="stop-color:#281A92"/>
			<stop  offset="1" style="stop-color:#5E66F7"/>
		</linearGradient>
		<path fill="url(#SVGID_13_)" d="M415.3,150.2c-3-3.4-7.1-7.8-10.8-4.1c-3.7,3.7-12.8-3.4-18-0.1c-5.2,3.4-14.4,7-22.9,15.6
			c0,0,17.1,29.3,26,39c3.3,3.6,5.4,6.1,6.8,8.2c25.8-14.7,53.9-24.4,81.7-29.6c-5.4-3.1-10.5-5.9-14.8-8.4
			C446.1,160.8,418.3,153.6,415.3,150.2z"/>
	</g>
	<linearGradient id="SVGID_14_" gradientUnits="userSpaceOnUse" x1="413.4022" y1="182.2974" x2="413.4022" y2="132.3141">
		<stop  offset="0" style="stop-color:#F1F8FE"/>
		<stop  offset="1" style="stop-color:#BBC6FD"/>
	</linearGradient>
	<path fill="url(#SVGID_14_)" d="M451.4,163.2c-17.1-10.1-33.4-22-36.3-25.3c-3-3.4-7-7.8-10.8-4.1c-3.7,3.7-14,10.8-19.8,12.8
		c-8,2.9-12.5,6.5-21,15.1c0,0,5.9,10.2,12.6,20.6c3.8-9.2,19.7-20.9,32.2-18.7c16.8,2.9,21.4,19.7,54.9,7.2
		C458.2,167.4,454.1,164.8,451.4,163.2"/>
	<g>
		<linearGradient id="SVGID_15_" gradientUnits="userSpaceOnUse" x1="43.0615" y1="470.7729" x2="399.4404" y2="470.7729">
			<stop  offset="0" style="stop-color:#281A92"/>
			<stop  offset="1" style="stop-color:#5E66F7"/>
		</linearGradient>
		<path fill="url(#SVGID_15_)" d="M228.3,366.3L46.5,344.7c-14.1,104.1,9.8,237.8,169.1,287.6c107,33.4,183.9-19,183.9-19
			S254.6,538.5,290,356.1c4.2-21.3,10.9-40.7,19.8-58L262.1,316L228.3,366.3z"/>
		<linearGradient id="SVGID_16_" gradientUnits="userSpaceOnUse" x1="46.5283" y1="225.8062" x2="404.2416" y2="225.8062">
			<stop  offset="0" style="stop-color:#281A92"/>
			<stop  offset="1" style="stop-color:#5E66F7"/>
		</linearGradient>
		<path fill="url(#SVGID_16_)" d="M369.9,167.4c-1.8-14.1,11.6-19.6,11.6-19.6s-1-0.5-7.7-5.4c-6.8-4.9-33.7-34-36.2-38.9
			c-2.5-4.9-12.1-5.7-15.2-7.5c-3.1-1.8-2.6-9.3-7.5-10.5c-4.9-1.2-13.3,7.7-20,15.6c-6.8,8-12.9,12.3-26.4,19
			c-13.5,6.8-34.9,40.7-79.7,81.2c-26.9,24.3-79.8,46.4-126.4,73.5C55.8,295.1,50,319,46.5,344.7l181.8,21.7l33.8-50.3l47.7-17.9
			c20.6-40.5,58.2-73.4,94.4-93.5C385.7,193.4,371.7,181.5,369.9,167.4z"/>
	</g>
	<g>
		<path fill="#00020C" d="M239,215.7c-1.7-0.9-3.9-2.6-5.3-4.9c3.5-0.2,6.9-1.1,6.3-2.1c-0.3-0.5-6.7-2.7-7.4-7.2c0.4,0,0.7,0,1,0
			c2.1,0,1.9-0.1,1.7-0.7c-0.2-0.6-0.6-0.6-2.1-2.3c-1.1-1.2-2-2.6-2.8-4.4c0.9,0,1.6,0,1.9-0.1c0.8-0.1,0.7-0.3,0.1-0.7
			c1.2,0.5-2.1-1.6-2.8-4.6c-0.7-3-0.9-5.4-1.2-5.3c-0.3,0-0.4,0.8-0.8,2.1c-0.4,1.3-0.9,3.9-2,5.5c-1.2,1.8-2.7,2.3-2.8,2.6
			c0,0.3,0.8,0.3,1.6,0.3c0.2,0,0.8,0.1,1.6,0.1c-0.9,2.2-2.6,4.3-3.7,6c-1.3,2.1-2,1.8-2,2.3c0,0.5,1,0.2,3.1-0.3c0,0,0.1,0,0.1,0
			c-0.9,3.2-5.5,5.9-7.6,7.2c-1.1,0.7-0.3,1.2,2.8,0.9c0.9-0.1,2,0,3.3,0.1c-1.2,2.4-3.7,5.1-6.3,6.6c-0.9,0.5-0.9,1.2,1.6,1.6
			c3.8,0.6,11.4,1.4,15.5,0.6C239.1,217.6,241,216.7,239,215.7z"/>
		<path fill="#00020C" d="M303.8,176.4c0.2,0,0.4,0,0.5,0c1.2,0,1.1,0,0.9-0.4c-0.1-0.3-0.4-0.3-1.2-1.3c-0.6-0.7-1.1-1.5-1.6-2.5
			c0.5,0,0.9,0,1.1,0c0.5-0.1,0.4-0.2,0.1-0.4c0.7,0.3-1.2-0.9-1.6-2.6c-0.4-1.7-0.5-3-0.7-3c-0.2,0-0.2,0.4-0.5,1.2
			c-0.2,0.7-0.5,2.2-1.1,3.1c-0.7,1-1.5,1.3-1.5,1.5c0,0.2,0.5,0.1,0.9,0.2c0.1,0,0.5,0,0.9,0.1c-0.5,1.3-1.5,2.4-2.1,3.4
			c-0.7,1.2-1.1,1-1.1,1.3c0,0.3,0.5,0.1,1.8-0.2c0,0,0,0,0.1,0c-0.5,1.8-3.1,3.3-4.2,4c-0.6,0.4-0.2,0.7,1.6,0.5c0.5,0,1.1,0,1.8,0
			c-0.7,1.3-2.1,2.8-3.5,3.7c-0.5,0.3-0.5,0.6,0.9,0.9c2.1,0.4,6.4,0.8,8.7,0.3c3.4-0.7,4.5-1.2,3.4-1.8c-0.9-0.5-2.2-1.4-3-2.8
			c1.9-0.1,3.9-0.6,3.5-1.2C307.8,180.1,304.2,178.9,303.8,176.4z"/>
		<path fill="#00020C" d="M336.1,228.1c-0.3-0.5-6.5-2.6-7.2-6.9c0.4,0,0.7,0,1,0c2,0,1.9-0.1,1.6-0.7c-0.2-0.6-0.6-0.6-2.1-2.2
			c-1.1-1.2-2-2.6-2.8-4.4c1,0,1.8-0.1,2.2-0.2c0.8-0.2,0.7-0.3,0.1-0.7c-1-0.7-2.1-1.4-3-4.3c-0.9-2.9-1.2-5.2-1.5-5.1
			c-0.3,0.1-0.4,0.8-0.7,2.1c-0.3,1.3-0.7,3.8-1.6,5.4c-1,1.8-2.5,2.3-2.5,2.7c0,0.3,0.8,0.2,1.6,0.2c0.2,0,0.6,0,1.2,0
			c-0.9,2.1-2.5,4.1-3.5,5.7c-1.3,2.1-2,1.8-2,2.3c0,0.5,0.9,0.2,3-0.3c0,0,0.1,0,0.1,0c-0.9,3.1-5.3,5.7-7.3,6.9
			c-1.1,0.7-0.3,1.1,2.8,0.9c0.8-0.1,1.9,0,3.2,0.1c-1.2,2.3-3.6,4.9-6.1,6.4c-0.9,0.5-0.9,1.1,1.5,1.5c3.7,0.6,11,1.3,15,0.5
			c5.9-1.2,7.8-2.1,5.9-3.1c-1.6-0.8-3.8-2.5-5.2-4.8C333.3,229.9,336.7,229.1,336.1,228.1z"/>
		<path fill="#00020C" d="M289.2,286.7c-7.7-3.4-11.8-6.9-14.3-11.7c2.5,0.2,4.5,0.2,5.8,0.1c0.8-0.1,2.1-0.4,1.1-1.2
			c-1-0.8-6.6-4.1-8.7-7.5c-0.9-1.4-1.5-2.6-2.1-3.8c3.4,0.2,6.1,0.3,6.9,0.2c2-0.2,3.7-0.1,1.8-1.5c-4.1-2.9-8.4-6.9-10-11.5
			c0.5,0.1,0.9,0.1,1.3,0.2c3.7,0.8,5.4,1.3,5.4,0.5c0-0.9-1.2-0.3-3.5-3.9c-2-3.3-4.6-5-6.2-8.3c1.3-0.1,2.4-0.2,2.9-0.3
			c1.2-0.3,1-0.6,0.1-1.3c-1.6-1.3-3.2-2.6-4.5-7.9c-0.4-1.4-0.7-2.8-0.9-4c-0.4-2.1-0.6-5.8-1.1-5.8c-0.4,0-0.5,0.5-0.8,1.5
			c-0.1,0.6-0.3,1.6-0.5,2.8c-0.4,2.4-1,7-2.4,9.9c-1.6,3.3-3.8,4.3-3.8,4.9c0,0.6,1.2,0.4,2.4,0.4c0.1,0,0.1,0,0.2,0
			c-1.3,2.5-2.7,4.6-4.3,6.3c-2.6,2.8-3.3,2.8-3.7,3.9c-0.4,1-0.7,1.2,2.9,1.2c0.9,0,2.2,0,3.7-0.1c-1.4,2.9-5.1,5.6-7.1,7.8
			c-2.4,2.6-3.8,4-3.9,4.6c-0.2,0.6,3.2-0.3,8.1-0.3c-1.2,1.7-2.5,3.5-3.8,5.4c-3.4,4.9-5.5,4.5-5.9,5.3c-0.2,0.5-0.3,1.1,0.6,0.9
			c0.8-0.2,2.6,0.4,5,0.4c-3.3,6.1-7.2,8.7-11.9,10.1c-5.8,1.8-3.4,4.9,7.6,6.8c17.2,3,36.6,0.5,40.9,0.3
			C290.8,290.8,293.2,288.5,289.2,286.7z"/>
		<path fill="#00020C" d="M171.7,322.7c-12.5-5-19.1-10.1-23.2-17.1c4,0.3,7.4,0.4,9.4,0.2c1.3-0.1,3.5-0.6,1.8-1.7
			c-1.6-1.1-10.6-6-14.1-11c-1.4-2.1-2.5-3.9-3.4-5.6c5.5,0.3,9.9,0.4,11.1,0.3c3.3-0.3,6-0.1,2.9-2.2c-6.6-4.2-13.7-10.1-16.2-16.8
			c0.8,0.1,1.5,0.2,2,0.3c6,1.2,8.7,1.9,8.7,0.7c0-1.3-2-0.5-5.6-5.8c-3.3-4.8-7.4-7.3-10-12.2c2.1-0.1,3.9-0.3,4.8-0.5
			c1.9-0.5,1.7-0.8,0.2-1.9c-2.6-2-5.1-3.8-7.3-11.6c-0.6-2.1-1.1-4-1.5-5.8c-0.7-3.1-0.9-8.5-1.7-8.5c-0.6,0-0.8,0.7-1.3,2.1
			c-0.2,0.9-0.5,2.3-0.8,4.1c-0.7,3.5-1.5,8.3-3.8,12.6c-2.6,4.9-6.3,8.2-6.3,9.1c0,0.9,1.9,0.5,3.9,0.5c0.1,0,0.2,0,0.3,0
			c-2,3.7-4.4,6.7-7,9.3c-4.2,4.1-5.3,4.1-6,5.6c-0.7,1.5-1.1,1.8,4.7,1.7c1.4,0,3.6-0.1,6-0.1c-2.2,4.3-8.3,8.2-11.5,11.4
			c-3.9,3.8-6.1,5.9-6.4,6.7c-0.3,0.8,5.3-0.4,13.2-0.4c-1.9,2.5-4,5.1-6.2,7.9c-5.6,7.2-8.9,6.6-9.5,7.8c-0.3,0.7-0.4,1.6,1,1.3
			c1.3-0.2,4.2,0.6,8.1,0.7c-5.3,8.9-11.7,12.7-19.3,14.8c-9.3,2.6-5.4,7.1,12.4,9.9c27.9,4.3,59.3,0.7,66.3,0.4
			C174.3,328.7,178.3,325.4,171.7,322.7z"/>
	</g>
	<path fill="#FFFFFF" d="M195.7,157.9c3.2-0.4,11.5,0.7,12.3,0.3c0.6-0.2,0.4-1.5-0.2-2.2c-1.5-1.8-3.3-3.5-5.1-3.4
		c-0.5,0-0.9,0.1-1.4,0.2c-0.2,0-0.4-0.1-0.5-0.3c-1.1-2.9-3.4-4.8-6.1-4.8c-1.1,0-2.2,0.4-3.1,1.1c-0.2,0.2-0.5,0.1-0.6-0.1
		c-1.8-2.7-4.7-4-7.7-3.9c-3.8,0.1-6.7,2.6-8.1,6.8c-0.1,0.3-0.3,0.4-0.6,0.4c-0.8-0.3-1.7-0.4-2.6-0.4c-3.1,0.1-5.9,2-7.6,4.9
		c-0.8,1.4-0.3,1.8,2.2,1.5C175,156.8,185.6,159.2,195.7,157.9z"/>
	<g>
		<linearGradient id="SVGID_17_" gradientUnits="userSpaceOnUse" x1="305.3626" y1="166.0208" x2="305.3626" y2="82.5538">
			<stop  offset="0" style="stop-color:#F1F8FE"/>
			<stop  offset="1" style="stop-color:#BBC6FD"/>
		</linearGradient>
		<path fill="url(#SVGID_17_)" d="M338.6,103.3c-3.7-4.1-8.9-7.1-12.1-11c-4.1-5.1-7.3-8.3-12.2-9.6c-5.8-1.4-14,10-20.7,18
			c-6.8,8-14,12.9-27.6,19.8c-11,5.6-36.1,40.2-36.8,39.3c3.2,4.2,33.6,8.6,46.9,4.8c19.7-5.7,24.3-14.8,40.2-20.7
			c18.9-7,41.2,1.8,53.9,16.3c1.3-3.3,3.5-6.3,5.4-8.1c2.8-2.6,5.8-4.3,5.8-4.3s-0.5-0.2-7.2-5.1c-1-0.8-3-2.4-4.7-4.2
			C354.9,125.1,342,107,338.6,103.3z"/>
	</g>
	<path fill="#FFFFFF" d="M354.5,114.3c4.6-0.5,16.6,0.8,17.8,0.4c0.8-0.3,0.6-1.7-0.2-2.4c-2.2-2-4.7-3.9-7.4-3.8
		c-0.7,0-1.3,0.1-2,0.2c-0.3,0-0.6-0.1-0.7-0.4c-1.6-3.2-4.9-5.4-8.7-5.3c-1.6,0-3.2,0.5-4.5,1.2c-0.3,0.2-0.7,0.1-0.9-0.2
		c-2.5-3.1-6.4-5-10.7-4.9c-5.4,0.1-10.1,3.4-12.2,8c-0.1,0.3-0.5,0.5-0.8,0.4c-1.2-0.3-2.5-0.5-3.8-0.5c-4.5,0.1-8.5,2.1-11,5.4
		c-1.2,1.5-0.5,2,3.1,1.7C324.6,113,340,115.7,354.5,114.3z"/>
	<g>
		<linearGradient id="SVGID_18_" gradientUnits="userSpaceOnUse" x1="224.9144" y1="428.715" x2="224.9144" y2="253.8551">
			<stop  offset="0" style="stop-color:#26A6DD"/>
			<stop  offset="0.9252" style="stop-color:#81FCD0"/>
		</linearGradient>
		<path fill="url(#SVGID_18_)" d="M312.9,263.5c-8.5-11.3-25.7-13-39-3.3c-17,12.4-21.8,39.8-25.6,47.4c-3.8,7.6-21,11.5-26-0.8
			s-9.5-23.6-24.5-24.5c-20.6-1.1-24,29.7-33.3,36.3c-11.9,8.4-26.8,4.2-37.5,2.3c0,0,36.3,62.3,48.6,78c9.7,12.4,80.5,25,110,29.8
			c-1.8-21.9-0.7-45.9,4.4-72.2c6-30.9,17.5-57.6,32.9-80.3C317.9,271.8,315.8,267.4,312.9,263.5z"/>
	</g>
	<g>
		<path fill="#FFFFFF" d="M193.8,367.5l9.9-16.2l7.1-4.5l0,0l-2.9,7.9l-13.8,13.1C194,368.1,193.7,367.8,193.8,367.5z"/>
		<path fill="#FFFFFF" d="M201.4,321.8l9,16.7l0.2,8.4l0,0l-5.3-6.4l-4.4-18.5C200.8,321.7,201.3,321.5,201.4,321.8z"/>
		<path fill="#FFFFFF" d="M237.2,351.3l-19-0.5l-7.4-3.9l0,0l8.3-1.5l18.2,5.4C237.6,350.8,237.5,351.3,237.2,351.3z"/>
	</g>
	<g>
		<circle fill="#192036" cx="210.6" cy="346.8" r="1.6"/>
		<path fill="#00020C" d="M208.3,400.7l1.8-51.9h1.1L213,401C213.1,402.3,208.3,402,208.3,400.7z"/>
	</g>
	<g>
		<linearGradient id="SVGID_19_" gradientUnits="userSpaceOnUse" x1="178.147" y1="602.9752" x2="178.147" y2="301.4134">
			<stop  offset="0" style="stop-color:#26A6DD"/>
			<stop  offset="0.3911" style="stop-color:#4AC8D8"/>
			<stop  offset="1" style="stop-color:#81FCD0"/>
		</linearGradient>
		<path fill="url(#SVGID_19_)" d="M229.1,391.3c-22.2,3.4-43.2-4.6-60.8-38.6S128.5,295,92.2,303c-21.1,4.7-33.7,12-42.3,21
			c-19.4,88.3-13,210.4,87.3,279l177.9-80.7c-17.8-30.2-30.8-68.4-30.4-115.5C266.1,382.6,246.9,388.6,229.1,391.3z"/>
	</g>
	<g>
		<path fill="#FFFFFF" d="M58.6,364l25.3-8l11.6,1.8l0,0l-10.2,5.7l-26.5,1.3C58.3,364.7,58.2,364.1,58.6,364z"/>
		<path fill="#FFFFFF" d="M108.3,322.7l-5.7,25.9l-7.4,9.1l0,0l0.2-11.7l12.2-23.6C107.7,322,108.4,322.2,108.3,322.7z"/>
		<path fill="#FFFFFF" d="M119.1,386.3l-19.6-17.8l-4.2-10.9l0,0l10,6l14.4,22.3C119.9,386.2,119.4,386.6,119.1,386.3z"/>
	</g>
	<g>
		<circle fill="#192036" cx="95.2" cy="358.9" r="2.3"/>
		<path fill="#192036" d="M92,409.8l2.5-49.9H96l2.5,49.9C98.6,411.6,91.9,411.6,92,409.8z"/>
	</g>
	<path fill="#FFFFFF" d="M594,165.3c-5.1-0.4-18.2,1.3-19.5,0.8c-0.9-0.3-0.7-1.9,0.1-2.6c2.4-2.3,5-4.4,8-4.4
		c0.7,0,1.5,0.1,2.2,0.2c0.3,0,0.7-0.1,0.8-0.4c1.6-3.6,5.2-6,9.4-6c1.8,0,3.5,0.5,4.9,1.3c0.3,0.2,0.7,0.1,1-0.2
		c2.7-3.4,6.9-5.6,11.6-5.6c6,0,11.1,3.5,13.5,8.6c0.2,0.3,0.5,0.5,0.9,0.4c1.3-0.4,2.7-0.6,4.1-0.6c4.9,0,9.4,2.2,12.2,5.7
		c1.4,1.6,0.6,2.2-3.4,1.9C626.7,163.3,609.9,166.6,594,165.3z"/>
	<path fill="#FFFFFF" d="M421.1,85c-2.5-0.2-8.9,0.7-9.5,0.5c-0.4-0.2-0.3-1.1,0.1-1.5c1.2-1.3,2.5-2.5,3.9-2.5c0.4,0,0.7,0,1.1,0.1
		c0.2,0,0.3-0.1,0.4-0.3c0.8-2,2.6-3.4,4.6-3.4c0.9,0,1.7,0.3,2.4,0.7c0.2,0.1,0.4,0.1,0.5-0.1c1.3-1.9,3.4-3.2,5.7-3.2
		c2.9,0,5.4,2,6.6,4.9c0.1,0.2,0.3,0.3,0.4,0.2c0.6-0.2,1.3-0.3,2-0.3c2.4,0,4.6,1.2,6,3.2c0.7,0.9,0.3,1.3-1.6,1.1
		C437.1,83.8,428.9,85.7,421.1,85z"/>
	<path fill="#FFFFFF" d="M473,139c-3-0.3-10.8,0.9-11.6,0.6c-0.5-0.2-0.4-1.3,0.1-1.8c1.4-1.6,3-3,4.8-3c0.4,0,0.9,0,1.3,0.1
		c0.2,0,0.4-0.1,0.5-0.3c1-2.5,3.1-4.2,5.6-4.2c1.1,0,2.1,0.3,2.9,0.9c0.2,0.1,0.4,0.1,0.6-0.1c1.6-2.4,4.1-3.9,6.9-3.9
		c3.6,0,6.6,2.4,8,6c0.1,0.2,0.3,0.4,0.5,0.3c0.8-0.3,1.6-0.4,2.5-0.4c2.9,0,5.6,1.5,7.3,4c0.8,1.2,0.3,1.5-2,1.3
		C492.5,137.7,482.5,139.9,473,139z"/>
	<g>
		<path fill="#424C63" d="M708.3,634.5c27.6-36.6,46.1-83.9,53.7-136.4c-4.6-0.8-9.9-1.1-15.6-0.6c-13.7,1.3-21.1,9.1-41.6,9.5
			c-11.1,0.2-25.8-9.1-39.4-9.3c-21.2-0.2-28.5,9-42,9.3c-21.5,0.4-31.2-9-48.5-9.3c-18.3-0.3-29,11.3-41.2,12
			c-9.6,0.6-17.6-2.8-22-7.2c-0.7-0.7-1.3-1.3-2-1.7c-7.3,20.2-16.4,36.8-29.6,52.4v44.5c11.5,15.1,33.7,29.7,71.8,42.1
			c35.3,11.5,74.2,21.1,110.1,25h21.3C692.3,654.8,700.5,644.8,708.3,634.5z"/>
		<path fill="#424C63" d="M708.3,634.5c27.6-36.6,46.1-83.9,53.7-136.4c-4.6-0.8-9.9-1.1-15.6-0.6c-13.7,1.3-21.1,9.1-41.6,9.5
			c-11.1,0.2-25.8-9.1-39.4-9.3c-21.2-0.2-28.5,9-42,9.3c-21.5,0.4-31.2-9-48.5-9.3c-18.3-0.3-29,11.3-41.2,12
			c-9.6,0.6-17.6-2.8-22-7.2c-0.7-0.7-1.3-1.3-2-1.7c-7.3,20.2-16.4,36.8-29.6,52.4v44.5c11.5,15.1,33.7,29.7,71.8,42.1
			c35.3,11.5,74.2,21.1,110.1,25h21.3C692.3,654.8,700.5,644.8,708.3,634.5z"/>
	</g>
	<g>
		<path fill="#00020C" d="M708.3,635.2c0.9-1.2,1.8-2.4,2.7-3.6c-15.9-2.4-24.6,10.4-33.4,9.7c-16.8-1.3-14.7-14.6-18.9-32.8
			c-6.5-28.5-38.5-34.4-53.6-1c-10.3,22.9-24.3,32.4-41.2,27.2c-18.8-5.8-25.2-36.9-31.5-66.3c-3.8-18-16.1-35.2-34.2-42.2
			c-16.6,30.2-40,55.3-67.8,75c23.6,37.4,48.5,102.7,76.4,127.9c15.9,14.4,33.8,19.4,52.7,18.5C628.2,723.4,673.3,681.5,708.3,635.2
			z"/>
	</g>
	<g>
		<path fill="#424C63" d="M572.5,705.8c-25.6,4-58.9-14.8-68.3-50c-10-37.5-41.6-54.4-75-53.8c-6.4,4.5-13.1,8.7-20,12.6
			C376,633.5,72.5,531.4,72.5,531.4s90.3,222.3,307.7,236c114,7.2,191-16,247.2-53.7C608.9,697.6,590.1,703.1,572.5,705.8z"/>
	</g>
	<g>
		<linearGradient id="SVGID_20_" gradientUnits="userSpaceOnUse" x1="138.1789" y1="584.7622" x2="138.1789" y2="394.9824">
			<stop  offset="0" style="stop-color:#38B7DA"/>
			<stop  offset="0.7835" style="stop-color:#81FCD0"/>
		</linearGradient>
		<path fill="url(#SVGID_20_)" d="M113.9,584.7c9.1,0.7,27.3-3.2,57.4-16.1c38.6-16.5,62.9-86,62.9-86s0.9-23.6-7.9-29
			c-14.9-9-21.4,5.8-26,5.5c-10.1-0.7-9.4-8.3-12.5-19.1c-4.9-16.9-27.7-11.4-32.2,1.3c-5.1,14.2-13.5,20.3-23.8,17.8
			c-11.5-2.8-16.4-21.3-21.2-38.7c-4.8-17.5-22.9-32.9-46.6-21.7c-12.4,5.9-18.8,18.4-21.9,29.5C46.6,484.8,66.4,541.8,113.9,584.7z
			"/>
	</g>
	<g>
		<path fill="#FFFFFF" d="M176.9,511.3l-25.4-22.9l-14.5-4.1l0,0l8.9,12.2l30.4,15.7C176.8,512.4,177.3,511.7,176.9,511.3z"/>
		<path fill="#FFFFFF" d="M140.5,436.3l-7.1,33.5l3.9,14.6l0,0l5.9-13.8l-1.7-34.2C141.5,435.8,140.6,435.7,140.5,436.3z"/>
		<path fill="#FFFFFF" d="M93.8,505.3l32.6-10.5l10.8-10.6l0,0l-15,1.7l-28.8,18.5C92.9,504.7,93.3,505.5,93.8,505.3z"/>
	</g>
	<g>
		<circle fill="#192036" cx="137.5" cy="484.4" r="2.9"/>
		<path fill="#00020C" d="M141.6,580.2l-3.2-94.4h-2l-3.2,94.3C133.1,582.6,141.8,582.6,141.6,580.2z"/>
	</g>
	<g>
		<linearGradient id="SVGID_21_" gradientUnits="userSpaceOnUse" x1="256.8536" y1="648.1375" x2="256.8536" y2="465.9847">
			<stop  offset="0" style="stop-color:#53D1D7"/>
			<stop  offset="0.9075" style="stop-color:#81FCD0"/>
		</linearGradient>
		<path fill="url(#SVGID_21_)" d="M248.9,467.6c-38.6,8.2-47.6,25.6-66.3,63.2c-18.3,37-65.9,44.4-79.9,43
			c25.6,26.8,60.7,49.1,107.8,63.8c107,33.4,200.3-24.1,200.3-24.1s-88.5-42.2-117.3-140.7C283.2,467.7,268,463.6,248.9,467.6z"/>
	</g>
	<g>
		<path fill="#00020C" d="M482,702.2c-25-31.1-60.2-22-78.3-1.3c-18.2,20.8-37.2,42.9-54.9,39c-15.8-3.4-22.7-17.3-20.8-40.3
			c2.9-33.5-25.4-43.1-43.3-23.2c-11.5,12.8-15.8,24.3-29.8,17.9c-9.6-4.4-8.9-27.3-39.2-24.5c-11.5,1.1-20.3,9.7-26.3,18.6
			c47.5,40.3,110.5,73.9,190.8,78.9c43.5,2.7,81.6,1.1,115.2-4.2C497.6,745.6,494.3,717.5,482,702.2z"/>
	</g>
	<g>
		<path fill="#FFFFFF" d="M215.3,626.3l28-45.7l20-12.6l0,0l-8.1,22.2l-38.8,37C215.9,627.9,214.8,627.1,215.3,626.3z"/>
		<path fill="#FFFFFF" d="M236.7,497.5l25.4,47.2l0.7,23.7l0,0l-15-18.2l-12.5-52.1C235,497.2,236.3,496.7,236.7,497.5z"/>
		<path fill="#FFFFFF" d="M337.4,580.6l-53.6-1.4L263,568.1l0,0l23.3-4.1l51.4,15.1C338.5,579.3,338.3,580.6,337.4,580.6z"/>
	</g>
	<g>
		<circle fill="#080627" cx="262.6" cy="568.1" r="4.6"/>
		<path fill="#00020C" d="M262.8,678L262.8,678c-3.8,0-6.8-3.4-6.6-7.2l5-101.1h3.2l5,101.1C269.6,674.7,266.5,678,262.8,678z"/>
	</g>
	<g>
		<path fill="#00020C" d="M492.2,109.3c1-1.3,2.2-1.9,4.7-0.7c2.5,1.2,8.1,5.6,8.1,5.6l-4.4,6.2c0,0-5.4-4.1-7.2-6.4
			C491.7,111.9,491.1,110.8,492.2,109.3z"/>
		<path fill="#00020C" d="M503.4,122.9c2.4,1.7,14.1,10.1,19.7,10.9c1.5,0.2,1.7,0.6,4.9,2.5c1.7,1,3.2,2,3.6,1.3
			c0.5-0.8-0.6-1.8-2.7-3c-1.2-0.7-2.8-1.2-4.1-3.1c-2.6-3.9-16.9-14.7-16.9-14.7L503.4,122.9z"/>
		<path fill="#00020C" d="M478.7,146.5c-1.9-1.8-1.8-2.7,2.9-8.6c5.9-7.5,19.3-24.5,23.3-29.4S521.7,87,523,85.9
			c1-0.8,1.8-0.3,3.1,0.7c2.4,1.9,2.3,2.9,0.1,7.8c-3.5,7.9-9.4,16.6-11.9,20.5c-2.5,3.9-12.8,16.1-16.7,20.1
			c-10.5,10.9-13.3,13.5-16.6,12.7C480.2,147.6,478.7,146.5,478.7,146.5z"/>
		<path fill="#00020C" d="M520.8,140.9c-1.2-0.9-1.2-1.4,0-3.4c1.2-2,2.4-4.4,3-5.2c0.6-0.8,2.8-2.9,4.4-4.2
			c1.6-1.2,2.4-2.6,3.4-2.2c1.3,0.6,2.4,1.7,1.7,3.1c-0.5,1.1-3.1,5.6-3.5,6.4c-0.4,0.8-4.3,4.5-5.2,5.3S522.3,142.1,520.8,140.9z"
			/>
	</g>
	<g>
		<path fill="#00020C" d="M608.8,468.8l0,95c0,0,1,2.7,4.3,2.5c3-0.2,4.1-2,4.1-2l0.6-96.1L608.8,468.8z"/>
		<path fill="#2C3142" d="M605.3,339.9l0.1,140.8c0,0,2,5.4,8.7,4.9c6.1-0.4,8.3-4.1,8.3-4.1l1.2-143L605.3,339.9z"/>
		<path fill="#00020C" d="M599.3,344.2l0.1,78.3c0,0,2.9,9,14.7,8.1c11.8-1,15.2-6.6,15.2-6.6l2.2-82.2L599.3,344.2z"/>
		<polygon fill="#424C63" points="531,294.5 611.5,324.3 610.9,369.6 543.4,346.5 		"/>
		<polygon fill="#00020C" points="704.1,299.6 611.5,324.3 610.9,369.6 691.1,347.1 		"/>
		<polygon fill="#8D98B2" points="629.8,267.4 531,294.5 611.5,324.3 704.1,299.6 		"/>
		<polygon fill="#424C63" points="600.1,289.3 600.5,260.3 639.8,276.3 639.4,302.3 		"/>
		<polygon fill="#00020C" points="667.7,268.7 639.8,276.3 639.4,302.3 667.3,294.4 		"/>
		<polygon fill="#8D98B2" points="635.2,254.6 600.5,260.3 639.8,276.3 667.7,268.7 		"/>
		<g>
			<polyline fill="none" stroke="#080627" stroke-width="2.4174" stroke-linecap="round" stroke-miterlimit="10" points="597.1,310 
				577.5,231.6 556.4,295.4 			"/>
			
				<line fill="none" stroke="#080627" stroke-width="2.4174" stroke-linecap="round" stroke-miterlimit="10" x1="570.8" y1="254.2" x2="585.6" y2="266.1"/>
			
				<line fill="none" stroke="#080627" stroke-width="2.4174" stroke-linecap="round" stroke-miterlimit="10" x1="567.3" y1="264.1" x2="590.5" y2="285"/>
			
				<line fill="none" stroke="#080627" stroke-width="2.4174" stroke-linecap="round" stroke-miterlimit="10" x1="563.1" y1="277.4" x2="596.8" y2="309.8"/>
			
				<line fill="none" stroke="#080627" stroke-width="2.4174" stroke-linecap="round" stroke-miterlimit="10" x1="584.1" y1="257.7" x2="567.5" y2="263.3"/>
			
				<line fill="none" stroke="#080627" stroke-width="2.4174" stroke-linecap="round" stroke-miterlimit="10" x1="585.8" y1="267.4" x2="562.8" y2="277.4"/>
			
				<line fill="none" stroke="#080627" stroke-width="2.4174" stroke-linecap="round" stroke-miterlimit="10" x1="590.7" y1="285.3" x2="556.5" y2="295.5"/>
		</g>
	</g>
	<g>
		<path fill="#424C63" d="M632.3,648.2c2.2-1.9,2.4-5.2,0.5-7.4c-1.9-2.2-5.2-2.4-7.4-0.5c-2.2,1.9-1.8,4.6,0.1,6.8
			S630.1,650.1,632.3,648.2z"/>
		<path fill="#424C63" d="M584.9,662.9c1.5-1.2,3.8-1.6,5.2,0.2c1,1.4,0.9,3.4-0.6,4.7c-1.5,1.2-3.9,1.4-5.1,0.1
			S583.4,664.2,584.9,662.9z"/>
		<path fill="#424C63" d="M592.7,648.1c1.9-1.7,4.9-1.8,6.6,0.1s1.8,5.2-0.2,6.8s-5.2,1.1-6.8-0.8
			C590.6,652.2,590.7,649.7,592.7,648.1z"/>
		<path fill="#424C63" d="M618.3,672.2c4.4-1.6,6.9-7.6,5.3-12c-1.6-4.4-6.5-6.6-10.8-5c-4.4,1.6-7.8,6.6-6.2,10.9
			C608.2,670.5,613.9,673.8,618.3,672.2z"/>
	</g>
	<g>
		<g>
			<path fill="#00020C" d="M688.6,582.7c1.1,2.7,4.2,3.9,6.8,2.8c2.7-1.1,3.9-4.2,2.8-6.8c-1.1-2.7-3.8-3.2-6.4-2.1
				S687.5,580,688.6,582.7z"/>
			<path fill="#00020C" d="M689.6,533c0.7,1.8,0.3,4.1-1.8,4.9c-1.7,0.6-3.5-0.2-4.3-2c-0.7-1.8-0.1-4.2,1.5-4.9
				S688.9,531.3,689.6,533z"/>
			<path fill="#00020C" d="M701.3,545.1c1,2.4,0.2,5.2-2.2,6.2s-5.5,0.1-6.4-2.3s0.6-5.3,3-6.2C697.9,541.9,700.3,542.8,701.3,545.1
				z"/>
			<path fill="#00020C" d="M670.2,561.8c0.1,4.7,5.1,8.9,9.7,8.8c4.7-0.1,8.3-4,8.2-8.7c-0.1-4.7-3.8-9.5-8.5-9.3
				C675,552.8,670.1,557.2,670.2,561.8z"/>
		</g>
		<g>
			<path fill="#00020C" d="M389.8,664.7c1.4-2.5,0.6-5.7-1.9-7.1c-2.5-1.4-5.7-0.6-7.1,1.9c-1.4,2.5-0.2,4.9,2.2,6.4
				C385.5,667.3,388.3,667.2,389.8,664.7z"/>
			<path fill="#00020C" d="M349.6,693.9c1-1.7,3.1-2.8,5-1.5c1.4,1,1.9,3,1,4.6c-1,1.7-3.3,2.6-4.8,1.7
				C349.2,697.9,348.6,695.6,349.6,693.9z"/>
			<path fill="#00020C" d="M352.2,677.3c1.3-2.2,4.1-3.3,6.3-2c2.2,1.3,3.3,4.3,2,6.5c-1.3,2.2-4.6,2.7-6.7,1.4
				C351.6,681.9,350.9,679.5,352.2,677.3z"/>
			<path fill="#00020C" d="M384.2,692c3.6-2.9,4.1-9.4,1.1-13.1c-2.9-3.6-8.2-4.2-11.9-1.3s-5.2,8.7-2.3,12.4
				C374.1,693.6,380.6,694.9,384.2,692z"/>
		</g>
	</g>
</g>
<g id="good-business">
</g>
<g id="climate-crusader">
</g>
<g id="for-humanity">
</g>
<g id="Swatches">
</g>
</svg>
